ply
format ascii 1.0
comment VCGLIB generated
element vertex 1466
property float x
property float y
property float z
property float nx
property float ny
property float nz
property uchar red
property uchar green
property uchar blue
property uchar alpha
element face 0
property list uchar int vertex_indices
end_header
-2.311218 -1.037159 -2.508421 0 0 0 72 26 108 255 
-2.28087 -1.047823 -2.605589 0 0 0 72 26 108 255 
-2.243402 -1.042634 -2.612612 0 0 0 72 23 105 255 
-2.211283 -1.040084 -2.629798 0 0 0 72 24 106 255 
-2.179058 -1.037547 -2.646787 0 0 0 72 26 108 255 
-2.235356 -1.010995 -2.841334 0 0 0 71 19 101 255 
-2.136317 -1.029805 -2.642592 0 0 0 72 24 106 255 
-2.206979 -1.010879 -2.869007 0 0 0 72 20 103 255 
-2.119439 -1.035112 -2.690694 0 0 0 72 22 104 255 
-2.163094 -1.003339 -2.864798 0 0 0 72 24 106 255 
-2.056363 -1.017013 -2.643779 0 0 0 72 24 106 255 
-2.1445 -1.008188 -2.913315 0 0 0 72 24 106 255 
-2.069191 -1.037896 -2.755108 0 0 0 72 28 110 255 
-2.13535 -1.017954 -2.983097 0 0 0 72 23 105 255 
-2.011438 -1.022455 -2.718131 0 0 0 72 27 109 255 
-2.197302 -0.9961065 -3.207918 0 0 0 71 19 101 255 
-2.086255 -1.00799 -2.96759 0 0 0 72 23 105 255 
-2.012892 -1.038087 -2.808441 0 0 0 72 28 110 255 
-2.156675 -0.9911072 -3.214076 0 0 0 71 19 101 255 
-2.056788 -1.007896 -2.994504 0 0 0 72 27 109 255 
-1.950627 -1.020129 -2.760132 0 0 0 72 29 111 255 
-2.101725 -0.9791231 -3.187688 0 0 0 71 14 97 255 
-2.017549 -1.002902 -2.999801 0 0 0 72 23 105 255 
-1.931883 -1.025416 -2.80765 0 0 0 72 31 112 255 
-2.165469 -0.9571208 -3.42915 0 0 0 71 19 101 255 
-2.080217 -0.98351 -3.236338 0 0 0 72 20 103 255 
-1.978341 -0.9979298 -3.004827 0 0 0 72 23 105 255 
-1.89857 -1.022977 -2.822925 0 0 0 72 33 115 255 
-2.123656 -0.9522171 -3.434992 0 0 0 71 19 101 255 
-2.039606 -0.9785762 -3.241687 0 0 0 72 23 105 255 
-1.939164 -0.9929814 -3.009583 0 0 0 72 23 105 255 
-1.874427 -1.025681 -2.859531 0 0 0 72 27 109 255 
-2.100262 -0.9561665 -3.483997 0 0 0 71 19 101 255 
-2.021967 -0.9852767 -3.300971 0 0 0 72 27 109 255 
-1.945802 -1.012438 -3.122281 0 0 0 72 27 109 255 
-1.836229 -1.020698 -2.863657 0 0 0 72 31 112 255 
-2.058244 -0.9512919 -3.489381 0 0 0 71 17 100 255 
-1.985616 -0.9826837 -3.316777 0 0 0 72 22 104 255 
-1.887994 -0.997754 -3.083384 0 0 0 72 23 105 255 
-1.79807 -1.015737 -2.867519 0 0 0 72 29 111 255 
-2.029659 -0.9530345 -3.527236 0 0 0 71 16 99 255 
-1.940253 -0.9754786 -3.310564 0 0 0 72 23 105 255 
-1.844087 -0.9904169 -3.076624 0 0 0 72 24 106 255 
-1.773263 -1.018453 -2.903678 0 0 0 72 24 106 255 
-2.013916 -0.9613538 -3.59781 0 0 0 71 16 99 255 
-1.917017 -0.9798491 -3.358647 0 0 0 72 23 105 255 
-1.822259 -0.9952337 -3.124063 0 0 0 72 23 105 255 
-1.743734 -1.018617 -2.928861 0 0 0 72 26 108 255 
-2.074485 -0.941573 -3.814983 0 0 0 72 20 103 255 
-1.975739 -0.958699 -3.613556 0 0 0 71 17 100 255 
-1.867335 -0.9703832 -3.34095 0 0 0 72 20 103 255 
-1.795634 -0.9976177 -3.160519 0 0 0 72 26 108 255 
-1.692451 -1.006072 -2.899349 0 0 0 72 24 106 255 
-2.06079 -0.9513748 -3.897124 0 0 0 72 23 105 255 
-1.916121 -0.9451392 -3.574068 0 0 0 71 17 100 255 
-1.856296 -0.9816521 -3.421689 0 0 0 71 19 101 255 
-1.738896 -0.9830906 -3.120154 0 0 0 72 23 105 255 
-1.667055 -1.008806 -2.935023 0 0 0 72 29 111 255 
-1.986883 -0.9319543 -3.824893 0 0 0 72 26 108 255 
-1.882285 -0.9447172 -3.60024 0 0 0 71 17 100 255 
-1.798239 -0.9676404 -3.381446 0 0 0 72 26 108 255 
-1.724581 -0.9927301 -3.189158 0 0 0 72 23 105 255 
-1.653839 -1.019136 -3.003478 0 0 0 72 26 108 255 
-2.052397 -0.9038333 -4.112302 0 0 0 72 22 104 255 
-1.972327 -0.9417435 -3.906812 0 0 0 72 20 103 255 
-1.831679 -0.9356018 -3.58202 0 0 0 72 20 103 255 
-1.76552 -0.9674304 -3.406912 0 0 0 72 26 108 255 
-1.680685 -0.9854951 -3.181129 0 0 0 72 24 106 255 
-1.623441 -1.019319 -3.028034 0 0 0 72 22 104 255 
-1.919942 -0.9328141 -3.889043 0 0 0 72 24 106 255 
-1.838359 -0.9569163 -3.718506 0 0 0 71 14 97 255 
-1.740702 -0.9717963 -3.45432 0 0 0 72 26 108 255 
-1.645072 -0.9830961 -3.194852 0 0 0 72 24 106 255 
-1.576651 -1.009407 -3.008381 0 0 0 72 26 108 255 
-1.977693 -0.9021763 -4.166221 0 0 0 71 17 100 255 
-1.88401 -0.9322119 -3.915312 0 0 0 71 19 101 255 
-1.759414 -0.9326599 -3.622145 0 0 0 71 17 100 255 
-1.707409 -0.9715884 -3.479485 0 0 0 72 20 103 255 
-1.621337 -0.9879043 -3.241542 0 0 0 72 20 103 255 
-1.550064 -1.012139 -3.043551 0 0 0 72 24 106 255 
-1.975818 -0.9188758 -4.293243 0 0 0 71 17 100 255 
-1.847852 -0.9316167 -3.941387 0 0 0 72 20 103 255 
-1.748634 -0.9452559 -3.714224 0 0 0 71 19 101 255 
-1.650325 -0.9577259 -3.437823 0 0 0 72 22 104 255 
-1.589279 -0.9879136 -3.265987 0 0 0 72 23 105 255 
-1.499663 -0.9997708 -3.012236 0 0 0 72 31 112 255 
-1.997425 -0.8695545 -4.4851 0 0 0 71 14 97 255 
-1.917718 -0.9083184 -4.264026 0 0 0 72 20 103 255 
-1.815369 -0.933092 -3.978423 0 0 0 71 19 101 255 
-1.72135 -0.949178 -3.761799 0 0 0 72 22 104 255 
-1.632437 -0.9666473 -3.50701 0 0 0 72 22 104 255 
-1.553151 -0.9855406 -3.27915 0 0 0 72 26 108 255 
-1.472784 -1.002521 -3.047032 0 0 0 72 24 106 255 
-1.976909 -0.8776364 -4.568013 0 0 0 71 17 100 255 
-1.863908 -0.8997517 -4.245559 0 0 0 71 19 101 255 
-1.782526 -0.9345663 -4.015307 0 0 0 72 20 103 255 
-1.682171 -0.9466304 -3.775753 0 0 0 71 19 101 255 
-1.594826 -0.9641998 -3.520428 0 0 0 72 23 105 255 
-1.52073 -0.9855664 -3.303227 0 0 0 72 22 104 255 
-1.449341 -1.007775 -3.092821 0 0 0 72 27 109 255 
-1.928975 -0.8729677 -4.572255 0 0 0 71 19 101 255 
-1.799078 -0.8854287 -4.193015 0 0 0 71 16 99 255 
-1.738021 -0.9298785 -4.018419 0 0 0 71 17 100 255 
-1.646641 -0.946247 -3.800664 0 0 0 71 19 101 255 
-1.553405 -0.9595042 -3.522436 0 0 0 72 20 103 255 
-1.465777 -0.9713194 -3.26018 0 0 0 72 24 106 255 
-1.414284 -1.005509 -3.105136 0 0 0 72 20 103 255 
-1.895958 -0.8755751 -4.621237 0 0 0 71 19 101 255 
-1.775781 -0.8923906 -4.263659 0 0 0 71 19 101 255 
-1.686162 -0.9211186 -3.998775 0 0 0 72 23 105 255 
-1.588888 -0.933006 -3.758044 0 0 0 72 22 104 255 
-1.512036 -0.9548328 -3.524166 0 0 0 72 22 104 255 
-1.451595 -0.9832624 -3.339671 0 0 0 72 20 103 255 
-1.360927 -0.990765 -3.061453 0 0 0 72 24 106 255 
-1.858789 -0.8763674 -4.658799 0 0 0 71 19 101 255 
-1.744432 -0.8954788 -4.311735 0 0 0 71 16 99 255 
-1.667319 -0.9308056 -4.080018 0 0 0 72 22 104 255 
-1.556926 -0.9348046 -3.793675 0 0 0 71 16 99 255 
-1.503057 -0.9704804 -3.626647 0 0 0 72 24 106 255 
-1.429358 -0.9904263 -3.396805 0 0 0 72 23 105 255 
-1.347524 -1.003515 -3.140301 0 0 0 72 24 106 255 
-1.806923 -0.8699465 -4.650939 0 0 0 71 17 100 255 
-1.712589 -0.898558 -4.359686 0 0 0 71 19 101 255 
-1.622622 -0.926173 -4.082355 0 0 0 71 17 100 255 
-1.535208 -0.9430094 -3.862958 0 0 0 71 14 97 255 
-1.432994 -0.9478133 -3.538044 0 0 0 71 19 101 255 
-1.364293 -0.9691656 -3.319181 0 0 0 72 26 108 255 
-1.291112 -0.9863482 -3.084784 0 0 0 72 22 104 255 
-1.885113 -0.8494304 -5.044822 0 0 0 71 17 100 255 
-1.762268 -0.8671601 -4.66538 0 0 0 71 19 101 255 
-1.676743 -0.8997141 -4.396193 0 0 0 71 17 100 255 
-1.581474 -0.9236028 -4.095692 0 0 0 71 19 101 255 
-1.485018 -0.9341365 -3.8419 0 0 0 71 19 101 255 
-1.395186 -0.9454567 -3.550238 0 0 0 72 24 106 255 
-1.341636 -0.976343 -3.375955 0 0 0 72 23 105 255 
-1.266427 -0.9916195 -3.129797 0 0 0 72 24 106 255 
-1.831125 -0.8431522 -5.036996 0 0 0 71 17 100 255 
-1.731309 -0.871572 -4.724961 0 0 0 72 22 104 255 
-1.633662 -0.897048 -4.40985 0 0 0 71 19 101 255 
-1.547101 -0.9251144 -4.131415 0 0 0 71 17 100 255 
-1.445347 -0.9316871 -3.854404 0 0 0 71 16 99 255 
-1.38781 -0.9632969 -3.663818 0 0 0 71 19 101 255 
-1.318367 -0.9835024 -3.432676 0 0 0 72 26 108 255 
-1.24802 -1.001843 -3.197214 0 0 0 72 24 106 255 
-0.8315811 -0.3268993 -1.832168 0 0 0 71 14 97 255 
-1.763763 -0.8301923 -4.98324 0 0 0 71 17 100 255 
-1.689583 -0.8705978 -4.750314 0 0 0 72 26 108 255 
-1.580389 -0.8886781 -4.389168 0 0 0 72 20 103 255 
-1.485491 -0.9104033 -4.076251 0 0 0 71 17 100 255 
-1.418909 -0.9377468 -3.911993 0 0 0 71 14 97 255 
-1.339278 -0.9542204 -3.641801 0 0 0 72 20 103 255 
-1.25802 -0.9647434 -3.365149 0 0 0 72 22 104 255 
-1.20571 -0.9946975 -3.185764 0 0 0 72 24 106 255 
-0.8372722 -0.3410156 -1.954759 0 0 0 39 127 142 255 
-1.71706 -0.8273535 -4.997402 0 0 0 70 11 94 255 
-1.627779 -0.8589134 -4.707058 0 0 0 71 19 101 255 
-1.534048 -0.8841569 -4.390855 0 0 0 71 19 101 255 
-1.464128 -0.9200441 -4.156911 0 0 0 71 19 101 255 
-1.385331 -0.9395518 -3.946796 0 0 0 71 16 99 255 
-1.307348 -0.9563549 -3.676086 0 0 0 72 22 104 255 
-1.23427 -0.9719121 -3.421523 0 0 0 72 23 105 255 
-1.163602 -0.9875841 -3.174015 0 0 0 72 28 110 255 
-0.9671857 -0.250767 -2.482702 0 0 0 69 4 87 255 
-0.8546035 -0.309106 -2.112446 0 0 0 72 33 115 255 
-0.7957882 -0.3329988 -1.91745 0 0 0 40 124 142 255 
-0.9127527 -0.4352182 -2.348156 0 0 0 70 7 90 255 
-0.9671836 -0.5175495 -2.551356 0 0 0 71 16 99 255 
-0.9770672 -0.5795991 -2.591135 0 0 0 71 13 96 255 
-0.9712022 -0.6347877 -2.575929 0 0 0 71 13 96 255 
-1.306729 -0.9117503 -3.822214 0 0 0 70 11 94 255 
-1.271889 -0.9562593 -3.698864 0 0 0 71 16 99 255 
-1.209907 -0.9790643 -3.477834 0 0 0 72 20 103 255 
-1.137563 -0.9928476 -3.218497 0 0 0 72 24 106 255 
-0.9451111 -0.09784877 -2.478094 0 0 0 71 42 122 255 
-0.9326981 -0.1483529 -2.452395 0 0 0 68 59 132 255 
-0.9066572 -0.1949637 -2.377157 0 0 0 71 46 124 255 
-0.919352 -0.2427494 -2.43445 0 0 0 71 42 122 255 
-0.913253 -0.2925361 -2.421209 0 0 0 72 38 119 255 
-0.8348355 -0.3117101 -2.155401 0 0 0 66 64 134 255 
-0.7675979 -0.3313138 -1.925642 0 0 0 42 119 142 255 
-0.8978874 -0.4417139 -2.414327 0 0 0 66 63 133 255 
-0.938377 -0.5174181 -2.572061 0 0 0 70 7 90 255 
-0.9422868 -0.6348859 -2.59665 0 0 0 71 16 99 255 
-0.9205622 -0.6750957 -2.569031 0 0 0 72 28 110 255 
-1.039873 -0.8159398 -3.004984 0 0 0 70 10 93 255 
-1.150712 -0.9604349 -3.409218 0 0 0 72 26 108 255 
-1.101737 -0.9907068 -3.228899 0 0 0 72 26 108 255 
-0.9421273 -0.1040024 -2.590927 0 0 0 63 72 137 255 
-0.9075084 -0.1484999 -2.484425 0 0 0 63 72 137 255 
-0.8977703 -0.2010163 -2.466619 0 0 0 59 81 139 255 
-0.8879554 -0.2408893 -2.443367 0 0 0 56 89 140 255 
-0.8788096 -0.2893487 -2.418598 0 0 0 59 82 139 255 
-0.8020402 -0.3085036 -2.152332 0 0 0 66 63 133 255 
-0.7362286 -0.3280733 -1.922183 0 0 0 42 120 142 255 
-0.8418093 -0.4265675 -2.331402 0 0 0 67 62 133 255 
-1.508047 -0.8597097 -4.803536 0 0 0 72 20 103 255 
-0.8816842 -0.5568572 -2.495234 0 0 0 67 61 132 255 
-0.869967 -0.6068299 -2.457324 0 0 0 62 73 137 255 
-0.8855005 -0.6710982 -2.566638 0 0 0 71 17 100 255 
-0.8985806 -0.7361295 -2.616045 0 0 0 71 19 101 255 
-1.128916 -0.9699361 -3.476541 0 0 0 72 24 106 255 
-1.056736 -0.9811983 -3.205049 0 0 0 72 22 104 255 
-1.820951 -0.2755142 -5.948471 0 0 0 60 80 139 255 
-0.9284515 -0.1074292 -2.669261 0 0 0 72 24 106 255 
-0.9099885 -0.1576857 -2.620253 0 0 0 64 70 136 255 
-0.9033441 -0.2126426 -2.613855 0 0 0 65 66 135 255 
-0.8781306 -0.2475581 -2.532812 0 0 0 62 73 137 255 
-0.8475334 -0.2875121 -2.427278 0 0 0 67 61 132 255 
-0.7693327 -0.3053183 -2.149041 0 0 0 68 58 131 255 
-0.7018902 -0.3232897 -1.907013 0 0 0 55 91 141 255 
-0.7350473 -0.3833043 -2.052675 0 0 0 39 173 129 255 
-0.8923096 -0.5242535 -2.658897 0 0 0 72 22 104 255 
-0.8440185 -0.5512283 -2.481073 0 0 0 63 72 137 255 
-0.8265401 -0.5969598 -2.420261 0 0 0 54 93 141 255 
-0.8505206 -0.6671225 -2.56401 0 0 0 70 11 94 255 
-0.8722748 -0.738675 -2.647762 0 0 0 72 40 120 255 
-0.9695621 -0.87204 -3.019939 0 0 0 70 10 93 255 
-0.7864642 -0.7849814 -2.317171 0 0 0 71 17 100 255 
-1.777265 -0.2747537 -5.997571 0 0 0 62 74 137 255 
-0.8987043 -0.1627929 -2.710045 0 0 0 70 48 126 255 
-0.8859807 -0.2163483 -2.68045 0 0 0 62 74 137 255 
-0.888411 -0.2626704 -2.703182 0 0 0 61 78 138 255 
-0.8041576 -0.2803881 -2.389606 0 0 0 68 57 131 255 
-0.7457142 -0.3064778 -2.180119 0 0 0 66 63 133 255 
-0.6916987 -0.3310098 -1.983727 0 0 0 62 74 137 255 
-0.7060571 -0.3816192 -2.060505 0 0 0 44 177 126 255 
-0.8744963 -0.5311869 -2.725175 0 0 0 58 83 139 255 
-0.8095337 -0.5475117 -2.478121 0 0 0 66 64 134 255 
-0.7924569 -0.5931444 -2.417233 0 0 0 51 99 141 255 
-0.8010431 -0.652675 -2.503902 0 0 0 70 10 93 255 
-1.07851 -0.9183261 -3.59369 0 0 0 70 8 92 255 
-1.024967 -0.942263 -3.382921 0 0 0 70 11 94 255 
-0.9735779 -0.9672041 -3.179113 0 0 0 72 23 105 255 
-1.321344 -0.1095532 -4.454772 0 0 0 72 36 117 255 
-1.329063 -0.1701692 -4.481081 0 0 0 70 51 127 255 
-1.337034 -0.2436281 -4.529696 0 0 0 69 53 129 255 
-0.8494828 -0.2583492 -2.688771 0 0 0 68 59 132 255 
-0.7818812 -0.282558 -2.432503 0 0 0 67 61 132 255 
-0.7159067 -0.3047594 -2.187993 0 0 0 66 64 134 255 
-0.6485042 -0.3215841 -1.933607 0 0 0 66 65 134 255 
-0.6799219 -0.3815962 -2.07968 0 0 0 47 180 124 255 
-0.8385709 -0.5275228 -2.722366 0 0 0 58 83 139 255 
-0.7693599 -0.5400597 -2.451949 0 0 0 66 63 133 255 
-0.7613394 -0.5913503 -2.425454 0 0 0 50 102 142 255 
-0.9181466 -0.8211067 -3.111479 0 0 0 71 14 97 255 
-1.01932 -0.9657302 -3.518303 0 0 0 72 28 110 255 
-0.957807 -0.9822969 -3.268317 0 0 0 72 28 110 255 
-1.317698 0.03264049 -4.565849 0 0 0 65 66 135 255 
-1.310431 -0.0385299 -4.564651 0 0 0 57 86 140 255 
-1.300903 -0.1124126 -4.559033 0 0 0 56 88 140 255 
-1.296802 -0.1707151 -4.538902 0 0 0 57 86 140 255 
-1.295737 -0.2419755 -4.552735 0 0 0 60 80 139 255 
-1.238936 -0.3737249 -4.378786 0 0 0 70 48 126 255 
-0.81942 -0.2576715 -2.708847 0 0 0 67 61 132 255 
-0.7476462 -0.2794488 -2.429012 0 0 0 66 64 134 255 
-0.6889105 -0.3044871 -2.20725 0 0 0 68 59 132 255 
-0.6230631 -0.3215194 -1.952447 0 0 0 66 64 134 255 
-0.6422624 -0.3749932 -2.052542 0 0 0 40 174 128 255 
-0.8140281 -0.5309122 -2.765435 0 0 0 59 81 139 255 
-0.7351874 -0.5363939 -2.448503 0 0 0 64 69 136 255 
-0.727361 -0.5875747 -2.421988 0 0 0 50 102 142 255 
-0.827433 -0.7749773 -2.891207 0 0 0 72 26 108 255 
-0.976114 -0.9589362 -3.505085 0 0 0 72 26 108 255 
-0.9299641 -0.9875698 -3.311875 0 0 0 72 27 109 255 
-1.290389 0.03255573 -4.646951 0 0 0 63 72 137 255 
-1.274501 -0.03765211 -4.610792 0 0 0 60 80 139 255 
-1.256449 -0.1098949 -4.570213 0 0 0 62 73 137 255 
-1.266757 -0.1720091 -4.608228 0 0 0 60 79 138 255 
-1.25707 -0.2412067 -4.587164 0 0 0 63 71 136 255 
-1.263361 -0.3192142 -4.64133 0 0 0 71 13 96 255 
-0.8575379 -0.238383 -2.996245 0 0 0 69 55 129 255 
-0.7863556 -0.2557997 -2.717151 0 0 0 66 64 134 255 
-0.7191063 -0.2789873 -2.448482 0 0 0 67 62 133 255 
-0.6533571 -0.2999316 -2.19161 0 0 0 67 61 132 255 
-0.5974371 -0.3214588 -1.971151 0 0 0 69 55 129 255 
-0.6077396 -0.3700682 -2.03668 0 0 0 37 171 130 255 
-0.7807522 -0.5290304 -2.773767 0 0 0 63 71 136 255 
-0.7038514 -0.534621 -2.45636 0 0 0 65 66 135 255 
-0.6852499 -0.577845 -2.383761 0 0 0 51 99 141 255 
-0.7006187 -0.6430907 -2.505169 0 0 0 70 7 90 255 
-0.9611579 -0.9095891 -3.611565 0 0 0 70 10 93 255 
-0.8305495 -0.8640723 -3.056079 0 0 0 70 7 90 255 
-0.8073377 -0.9073821 -2.955062 0 0 0 70 11 94 255 
-1.262158 0.03249934 -4.72799 0 0 0 59 81 139 255 
-1.24087 -0.03731439 -4.668424 0 0 0 63 72 137 255 
-1.220268 -0.109384 -4.616086 0 0 0 64 70 136 255 
-1.230374 -0.1717679 -4.654158 0 0 0 59 81 139 255 
-1.231914 -0.2447845 -4.679606 0 0 0 64 69 136 255 
-0.8254535 -0.2375322 -3.016401 0 0 0 68 59 132 255 
-0.7532397 -0.2539423 -2.725253 0 0 0 68 59 132 255 
-0.6876448 -0.2772224 -2.456183 0 0 0 67 61 132 255 
-0.6261976 -0.2996812 -2.21052 0 0 0 65 68 135 255 
-0.5743375 -0.3229466 -2.001301 0 0 0 68 58 131 255 
-0.5707578 -0.3635326 -2.008994 0 0 0 31 154 138 255 
-0.7366839 -0.5201622 -2.735638 0 0 0 62 73 137 255 
-0.6671104 -0.5291276 -2.440929 0 0 0 62 73 137 255 
-0.665016 -0.584062 -2.437439 0 0 0 50 101 142 255 
-0.67163 -0.6434046 -2.524357 0 0 0 70 7 90 255 
-0.6989251 -0.7206018 -2.643456 0 0 0 72 24 106 255 
-0.6457281 -0.7301843 -2.410387 0 0 0 72 32 113 255 
-0.6995582 -0.837209 -2.64276 0 0 0 72 35 116 255 
-1.216601 0.03503546 -4.738897 0 0 0 60 79 138 255 
-1.206604 -0.03696457 -4.725916 0 0 0 59 82 139 255 
-1.197141 -0.1121617 -4.720143 0 0 0 60 80 139 255 
-1.190789 -0.1707696 -4.688249 0 0 0 63 71 136 255 
-1.197594 -0.2457331 -4.737032 0 0 0 64 69 136 255 
-0.8697206 -0.2033921 -3.346184 0 0 0 70 50 126 255 
-0.790499 -0.2355894 -3.024732 0 0 0 69 53 129 255 
-0.7307464 -0.2568695 -2.779706 0 0 0 66 63 133 255 
-0.6587972 -0.2767765 -2.475318 0 0 0 67 62 133 255 
-0.601503 -0.3008578 -2.240896 0 0 0 68 59 132 255 
-0.5403534 -0.3182723 -1.984928 0 0 0 66 63 133 255 
-0.5394019 -0.3603039 -2.00422 0 0 0 32 146 140 255 
-0.6983548 -0.5148329 -2.720334 0 0 0 63 71 136 255 
-0.6306025 -0.5236635 -2.425241 0 0 0 59 82 139 255 
-0.6285697 -0.5783582 -2.421788 0 0 0 50 102 142 255 
-0.6296038 -0.6333296 -2.485704 0 0 0 71 14 97 255 
-0.8999627 -0.9184897 -3.699021 0 0 0 71 13 96 255 
-0.8580456 -0.9479883 -3.509621 0 0 0 72 22 104 255 
-0.7669122 -0.9303288 -3.097754 0 0 0 71 14 97 255 
-1.171702 -0.03660312 -4.783264 0 0 0 59 82 139 255 
-1.162258 -0.112278 -4.777437 0 0 0 59 81 139 255 
-1.156132 -0.1712744 -4.745496 0 0 0 60 79 138 255 
-1.025858 -0.2019093 -4.187135 0 0 0 72 32 113 255 
-0.8353514 -0.2023312 -3.366441 0 0 0 68 58 131 255 
-0.7607053 -0.2358534 -3.056172 0 0 0 69 55 129 255 
-0.6894571 -0.2514596 -2.752501 0 0 0 68 58 131 255 
-0.6271728 -0.2750353 -2.48265 0 0 0 66 64 134 255 
-0.5661644 -0.2963612 -2.224619 0 0 0 67 61 132 255 
-0.5194585 -0.3213051 -2.026415 0 0 0 66 64 134 255 
-0.5030356 -0.3538323 -1.976017 0 0 0 33 143 141 255 
-0.6220815 -0.4833948 -2.530809 0 0 0 65 68 135 255 
-0.6044821 -0.5256658 -2.455616 0 0 0 60 80 139 255 
-0.599952 -0.5786242 -2.440564 0 0 0 49 104 142 255 
-0.5030684 -0.5527368 -2.053975 0 0 0 62 74 137 255 
-0.4967106 -0.5965403 -2.024384 0 0 0 69 55 129 255 
-0.4964468 -0.6460128 -2.022075 0 0 0 72 32 113 255 
-0.7765871 -0.972136 -3.312611 0 0 0 72 38 119 255 
-1.116472 -0.1097799 -4.787766 0 0 0 69 55 129 255 
-1.118272 -0.1710218 -4.790897 0 0 0 71 47 125 255 
-0.894147 -0.1696179 -3.787424 0 0 0 71 45 123 255 
-0.8007874 -0.2012788 -3.386505 0 0 0 71 46 124 255 
-0.7280443 -0.2350253 -3.075785 0 0 0 69 55 129 255 
-0.6535988 -0.2484572 -2.748338 0 0 0 67 61 132 255 
-0.6030626 -0.2772007 -2.524769 0 0 0 67 61 132 255 
-0.5411022 -0.2975487 -2.254693 0 0 0 68 58 131 255 
-0.4856021 -0.3166678 -2.009639 0 0 0 68 59 132 255 
-0.4769874 -0.3539051 -1.994049 0 0 0 35 138 141 255 
-0.4986438 -0.4173257 -2.108298 0 0 0 32 147 140 255 
-0.5039677 -0.4720002 -2.137992 0 0 0 41 123 142 255 
-0.4997414 -0.5215875 -2.123442 0 0 0 31 149 139 255 
-0.4814494 -0.5573795 -2.095126 0 0 0 38 173 129 255 
-0.4801354 -0.605912 -2.088537 0 0 0 42 176 127 255 
-0.4798896 -0.6559682 -2.086129 0 0 0 35 169 131 255 
-0.4837571 -0.7129703 -2.101749 0 0 0 50 182 122 255 
-0.8594218 -0.1691767 -3.819562 0 0 0 71 44 122 255 
-0.7660304 -0.200235 -3.406372 0 0 0 70 48 126 255 
-0.6927275 -0.2331171 -3.083518 0 0 0 68 57 131 255 
-0.6325714 -0.2525628 -2.814058 0 0 0 67 61 132 255 
-0.5637891 -0.2715945 -2.49673 0 0 0 68 59 132 255 
-0.503522 -0.2916838 -2.226318 0 0 0 65 66 135 255 
-0.4568467 -0.3151146 -2.01593 0 0 0 68 59 132 255 
-0.4483451 -0.3523597 -2.000294 0 0 0 34 141 141 255 
-0.4597151 -0.4088046 -2.068177 0 0 0 35 169 131 255 
-0.4625081 -0.4611503 -2.086371 0 0 0 34 167 133 255 
-0.4584268 -0.5101402 -2.0719 0 0 0 34 167 133 255 
-0.4570112 -0.5599456 -2.124608 0 0 0 38 173 129 255 
-0.4533965 -0.6065267 -2.10642 0 0 0 45 178 125 255 
-0.4461254 -0.6498019 -2.069379 0 0 0 35 169 131 255 
-0.4499321 -0.706552 -2.085084 0 0 0 52 182 121 255 
-0.905274 -0.1292023 -4.2243 0 0 0 72 32 113 255 
-0.8267762 -0.1695871 -3.86324 0 0 0 71 42 122 255 
-0.7262687 -0.1972698 -3.402606 0 0 0 70 51 127 255 
-0.6549702 -0.2301404 -3.079327 0 0 0 68 57 131 255 
-0.5917102 -0.247228 -2.786113 0 0 0 66 63 133 255 
-0.5367891 -0.272475 -2.526862 0 0 0 67 61 132 255 
-0.4805321 -0.2942927 -2.267747 0 0 0 67 62 133 255 
-0.4280521 -0.3135741 -2.022044 0 0 0 66 64 134 255 
-0.4173212 -0.3492072 -1.994709 0 0 0 34 141 141 255 
-0.4283124 -0.4055202 -2.062686 0 0 0 37 171 130 255 
-0.4217096 -0.4503517 -2.034422 0 0 0 31 152 139 255 
-0.4247401 -0.504649 -2.054852 0 0 0 32 163 134 255 
-0.4185074 -0.5501248 -2.084387 0 0 0 34 141 141 255 
-0.4173274 -0.5984303 -2.077846 0 0 0 34 167 133 255 
-0.4217359 -0.6528463 -2.098611 0 0 0 39 173 129 255 
-0.4209065 -0.7049994 -2.091243 0 0 0 56 185 119 255 
-0.9669742 -0.09921041 -4.758318 0 0 0 71 13 96 255 
-0.877004 -0.1313558 -4.303535 0 0 0 72 41 121 255 
-0.7795742 -0.1649197 -3.836333 0 0 0 72 26 108 255 
-0.6866018 -0.1943287 -3.398583 0 0 0 70 48 126 255 
-0.6219528 -0.2293476 -3.098336 0 0 0 70 51 127 255 
-0.5627995 -0.2477975 -2.816453 0 0 0 68 59 132 255 
-0.5025417 -0.2694961 -2.521738 0 0 0 68 58 131 255 
-0.4455942 -0.2898798 -2.250608 0 0 0 66 65 134 255 
-0.3992205 -0.3120465 -2.027981 0 0 0 67 61 132 255 
-0.3886738 -0.3476909 -2.000589 0 0 0 34 140 141 255 
-0.3970131 -0.4022562 -2.056988 0 0 0 35 169 131 255 
-0.4787002 -0.5189079 -2.482684 0 0 0 61 77 138 255 
-0.4566214 -0.556168 -2.374599 0 0 0 54 92 141 255 
-0.4205106 -0.5774335 -2.252875 0 0 0 71 19 101 255 
-0.7032353 -0.9058323 -3.729681 0 0 0 61 77 138 255 
-0.6561275 -0.9240609 -3.481299 0 0 0 63 72 137 255 
-0.3940551 -0.7058749 -2.108768 0 0 0 46 179 124 255 
-0.9258656 -0.09808353 -4.790978 0 0 0 72 33 115 255 
-0.8272822 -0.1269124 -4.276858 0 0 0 71 42 122 255 
-0.7486706 -0.1661846 -3.89136 0 0 0 72 36 117 255 
-0.6673951 -0.2000305 -3.500014 0 0 0 70 52 128 255 
-0.5842453 -0.2264098 -3.093682 0 0 0 69 56 130 255 
-0.5313202 -0.2471975 -2.834915 0 0 0 66 63 133 255 
-0.470633 -0.2678211 -2.528113 0 0 0 67 61 132 255 
-0.4220324 -0.2924893 -2.291769 0 0 0 68 59 132 255 
-0.3770037 -0.3150825 -2.068828 0 0 0 66 64 134 255 
-0.3511795 -0.3397385 -1.959553 0 0 0 34 140 141 255 
-0.3592359 -0.3938409 -2.01607 0 0 0 31 158 137 255 
-0.4559053 -0.5246159 -2.535584 0 0 0 62 73 137 255 
-0.4475787 -0.5741607 -2.497116 0 0 0 57 86 140 255 
-0.7346296 -0.9049367 -4.118824 0 0 0 72 22 104 255 
-0.6663985 -0.9059631 -3.749007 0 0 0 60 79 138 255 
-0.6272494 -0.931252 -3.535071 0 0 0 58 84 140 255 
-0.362743 -0.7019334 -2.103025 0 0 0 31 150 139 255 
-0.4334607 0.2256313 -2.357289 0 0 0 70 7 90 255 
-0.395043 0.1903512 -2.140913 0 0 0 69 5 89 255 
-0.4065247 -0.0004829466 -2.272105 0 0 0 70 8 92 255 
-0.6207045 -0.1942424 -3.460324 0 0 0 70 52 128 255 
-0.5531777 -0.226714 -3.124037 0 0 0 69 55 129 255 
-0.4866263 -0.2396093 -2.782733 0 0 0 71 42 122 255 
-0.4170292 -0.2533723 -2.416956 0 0 0 71 47 125 255 
-0.3333464 -0.2532364 -1.981162 0 0 0 69 55 129 255 
-0.3178353 -0.2923838 -1.910527 0 0 0 70 52 128 255 
-0.2886288 -0.3125267 -1.777843 0 0 0 43 117 142 255 
-0.3304811 -0.3923482 -2.021605 0 0 0 31 151 139 255 
-0.4346278 -0.5321461 -2.600071 0 0 0 61 78 138 255 
-0.4159691 -0.5725182 -2.503222 0 0 0 66 64 134 255 
-0.6911842 -0.9007407 -4.115091 0 0 0 71 19 101 255 
-0.6293744 -0.9061043 -3.76812 0 0 0 58 84 140 255 
-0.5873926 -0.927007 -3.53074 0 0 0 67 61 132 255 
-0.3315357 -0.698012 -2.097078 0 0 0 39 127 142 255 
-0.5851386 -0.1932519 -3.479158 0 0 0 68 57 131 255 
-0.5175658 -0.224881 -3.1307 0 0 0 70 50 126 255 
-0.2556432 -0.1286277 -1.683803 0 0 0 71 46 124 255 
-0.4108872 -0.2670645 -2.563766 0 0 0 67 61 132 255 
-0.3589302 -0.2879426 -2.291629 0 0 0 66 63 133 255 
-0.2730705 -0.2788582 -1.822009 0 0 0 65 66 135 255 
-0.2612918 -0.3111215 -1.782932 0 0 0 42 118 142 255 
-0.2934819 -0.3840027 -1.980173 0 0 0 33 145 140 255 
-0.4801781 -0.600154 -3.049964 0 0 0 68 59 132 255 
-0.515011 -0.6959442 -3.255531 0 0 0 72 41 121 255 
-0.537214 -0.7838482 -3.470253 0 0 0 38 129 142 255 
-0.5479844 -0.8586309 -3.531136 0 0 0 37 133 142 255 
-0.5295835 -0.9022543 -3.42167 0 0 0 65 68 135 255 
-0.3064403 -0.7013234 -2.125679 0 0 0 47 107 142 255 
-0.6234009 -0.1582808 -3.890521 0 0 0 72 22 104 255 
-0.5411934 -0.1884846 -3.450643 0 0 0 72 41 121 255 
-0.4757999 -0.2198668 -3.10181 0 0 0 71 46 124 255 
-0.2267616 -0.1261009 -1.676881 0 0 0 53 95 141 255 
-0.378721 -0.2654254 -2.569578 0 0 0 68 59 132 255 
-0.207642 -0.2031181 -1.592239 0 0 0 56 89 140 255 
-0.1873077 -0.2337768 -1.486677 0 0 0 46 111 142 255 
-0.2000842 -0.2825074 -1.588531 0 0 0 43 117 142 255 
-0.2312508 -0.3534309 -1.786224 0 0 0 44 114 142 255 
-0.5104459 -0.6587553 -3.442159 0 0 0 33 166 133 255 
-0.5241722 -0.7389587 -3.53059 0 0 0 61 188 116 255 
-0.5075213 -0.7901298 -3.523591 0 0 0 49 181 123 255 
-0.475307 -0.8178089 -3.328316 0 0 0 40 124 142 255 
-0.3066778 -0.681711 -2.31264 0 0 0 58 83 139 255 
-0.2733003 -0.695031 -2.107765 0 0 0 47 108 142 255 
-0.1953838 0.005024523 -1.595563 0 0 0 56 89 140 255 
-0.5193804 -0.1941291 -3.551604 0 0 0 66 65 134 255 
-0.4540823 -0.2255109 -3.19053 0 0 0 69 53 129 255 
-0.196036 -0.1224383 -1.657989 0 0 0 60 80 139 255 
-0.1981748 -0.1674375 -1.680514 0 0 0 56 88 140 255 
-0.1677927 -0.192104 -1.514488 0 0 0 47 107 142 255 
-0.1655819 -0.2354908 -1.51463 0 0 0 45 112 142 255 
-0.1642932 -0.2731994 -1.53439 0 0 0 37 132 142 255 
-0.1561048 -0.3093191 -1.4979 0 0 0 46 110 142 255 
-0.4769129 -0.6605251 -3.472062 0 0 0 31 162 135 255 
-0.4863262 -0.7370498 -3.537182 0 0 0 72 193 110 255 
-0.3182229 -0.6227957 -2.584337 0 0 0 40 124 142 255 
-0.2855643 -0.6390419 -2.378864 0 0 0 32 146 140 255 
-0.2743869 -0.6779038 -2.30628 0 0 0 51 98 141 255 
-0.2422706 -0.6911634 -2.101231 0 0 0 50 101 142 255 
-0.3281388 0.1376352 -2.508887 0 0 0 37 133 142 255 
-0.3215038 0.08787093 -2.495945 0 0 0 48 106 142 255 
-0.1803825 0.04416052 -1.655443 0 0 0 70 52 128 255 
-0.5541903 -0.159165 -3.975301 0 0 0 71 45 123 255 
-0.4811395 -0.1922178 -3.558046 0 0 0 56 88 140 255 
-0.4029106 -0.2152438 -3.102167 0 0 0 72 41 121 255 
-0.1674537 -0.1199536 -1.650677 0 0 0 63 72 137 255 
-0.1525583 -0.1534547 -1.567179 0 0 0 46 110 142 255 
-0.1382673 -0.1880549 -1.495273 0 0 0 49 103 142 255 
-0.1398178 -0.2342042 -1.518956 0 0 0 43 117 142 255 
-0.1957335 -0.3213269 -1.902937 0 0 0 38 130 142 255 
-0.2390553 -0.4086821 -2.194533 0 0 0 46 111 142 255 
-0.44673 -0.6659428 -3.525221 0 0 0 64 70 136 255 
-0.4136568 -0.6982354 -3.321257 0 0 0 55 90 140 255 
-0.2717065 -0.6048855 -2.49616 0 0 0 33 142 141 255 
-0.2493204 -0.6310427 -2.348995 0 0 0 31 158 137 255 
-0.240407 -0.6718482 -2.288063 0 0 0 51 99 141 255 
-0.2149358 -0.6921027 -2.117737 0 0 0 48 106 142 255 
-0.3003343 0.1901379 -2.51078 0 0 0 66 65 134 255 
-0.294238 0.1396043 -2.502258 0 0 0 30 157 137 255 
-0.2877173 0.08994707 -2.489288 0 0 0 61 78 138 255 
-0.2982571 0.03251842 -2.590328 0 0 0 70 10 93 255 
-0.2647283 0.002992392 -2.369899 0 0 0 71 16 99 255 
-0.5059641 -0.1538632 -3.934623 0 0 0 72 41 121 255 
-0.4520257 -0.1950033 -3.623363 0 0 0 48 106 142 255 
-0.1705825 -0.09955549 -1.832022 0 0 0 58 83 139 255 
-0.1371726 -0.1163401 -1.631372 0 0 0 46 109 142 255 
-0.1228158 -0.1496412 -1.547814 0 0 0 57 86 140 255 
-0.1125995 -0.1867861 -1.499421 0 0 0 44 113 142 255 
-0.1785206 -0.2867617 -1.946876 0 0 0 44 114 142 255 
-0.1818593 -0.3326647 -2.001544 0 0 0 34 139 141 255 
-0.31715 -0.5110476 -2.915846 0 0 0 50 100 142 255 
-0.5995007 -0.8605447 -4.798083 0 0 0 70 7 90 255 
-0.2961087 -0.6071959 -2.788479 0 0 0 71 44 122 255 
-0.2245548 -0.5850108 -2.395908 0 0 0 72 36 117 255 
-0.1927375 -0.59727 -2.178726 0 0 0 68 59 132 255 
-0.1928747 -0.6476812 -2.176361 0 0 0 72 40 120 255 
-0.1701949 -0.6691456 -2.017763 0 0 0 66 64 134 255 
-0.2604511 0.1415514 -2.495409 0 0 0 42 118 142 255 
-0.1286125 0.04609355 -1.675826 0 0 0 72 38 119 255 
-0.4635898 -0.1510575 -3.929124 0 0 0 72 32 113 255 
-0.4045401 -0.1884475 -3.570223 0 0 0 52 96 141 255 
-0.324908 -0.2075453 -3.066133 0 0 0 72 35 116 255 
-0.1054068 -0.1116082 -1.600042 0 0 0 50 102 142 255 
-0.09159499 -0.1445962 -1.516437 0 0 0 53 94 141 255 
-0.1784972 -0.2583343 -2.128556 0 0 0 70 48 126 255 
-0.1793832 -0.3107346 -2.151577 0 0 0 44 113 142 255 
-0.1531662 -0.3312623 -2.00598 0 0 0 35 138 141 255 
-0.1742586 -0.4006527 -2.168679 0 0 0 40 174 128 255 
-0.06249803 -0.4229725 -1.475586 0 0 0 71 17 100 255 
-0.07858062 -0.4863136 -1.587123 0 0 0 71 14 97 255 
-0.07388622 -0.5239913 -1.550876 0 0 0 71 13 96 255 
-0.06218809 -0.5531753 -1.463322 0 0 0 71 13 96 255 
-0.290108 0.1851854 -2.888634 0 0 0 69 4 87 255 
-0.2250479 0.1438523 -2.476472 0 0 0 32 147 140 255 
-0.5779387 -0.08686259 -4.996481 0 0 0 70 8 92 255 
-0.4688737 -0.1033585 -4.229148 0 0 0 72 24 106 255 
-0.09311736 0.008603007 -1.636104 0 0 0 72 24 106 255 
-0.3577359 -0.1819442 -3.516739 0 0 0 69 55 129 255 
-0.08311182 -0.07693851 -1.615613 0 0 0 56 89 140 255 
-0.1158355 -0.1354341 -1.864189 0 0 0 72 38 119 255 
-0.06411129 -0.1420918 -1.508472 0 0 0 58 83 139 255 
-0.1407086 -0.2500544 -2.073925 0 0 0 65 66 135 255 
-0.143167 -0.3033467 -2.108821 0 0 0 67 61 132 255 
-0.0966478 -0.3029501 -1.809947 0 0 0 42 119 142 255 
-0.07297754 -0.3246208 -1.655306 0 0 0 40 124 142 255 
-0.03439909 -0.3269254 -1.38069 0 0 0 52 97 141 255 
-0.03509349 -0.371993 -1.39078 0 0 0 54 92 141 255 
-0.02753514 -0.4095744 -1.409003 0 0 0 44 113 142 255 
-0.02711129 -0.4507522 -1.403773 0 0 0 72 27 109 255 
-0.05596888 -0.5340434 -1.613094 0 0 0 71 14 97 255 
-0.04006362 -0.5567183 -1.490396 0 0 0 72 20 103 255 
-0.3707759 0.1690836 -3.713377 0 0 0 69 4 87 255 
-0.208127 0.142034 -2.587972 0 0 0 59 82 139 255 
-0.1886857 0.09556037 -2.47989 0 0 0 38 130 142 255 
-0.5193738 -0.08038023 -4.920118 0 0 0 71 17 100 255 
-0.4297183 -0.1027175 -4.258982 0 0 0 72 29 111 255 
-0.3905569 -0.1511881 -4.000349 0 0 0 72 37 118 255 
-0.07382172 -0.03945741 -1.72032 0 0 0 69 53 129 255 
-0.05183226 -0.07253659 -1.583859 0 0 0 67 61 132 255 
-0.07028991 -0.1215816 -1.737959 0 0 0 49 104 142 255 
-0.05906743 -0.1571121 -1.665916 0 0 0 64 69 136 255 
-0.1337267 -0.2677914 -2.243515 0 0 0 67 62 133 255 
-0.03019613 -0.2232355 -1.487465 0 0 0 58 84 140 255 
-0.02375907 -0.2558039 -1.471885 0 0 0 39 126 142 255 
-0.009050786 -0.2827413 -1.376416 0 0 0 40 124 142 255 
-0.009501636 -0.3257329 -1.384236 0 0 0 54 92 141 255 
-0.00706023 -0.3669389 -1.370856 0 0 0 70 50 126 255 
-0.0009865761 -0.4063536 -1.400795 0 0 0 72 26 108 255 
-0.008197367 -0.4581198 -1.454142 0 0 0 72 24 106 255 
-0.01006037 -0.5034487 -1.46487 0 0 0 71 19 101 255 
-0.01763403 -0.5602586 -1.517353 0 0 0 72 20 103 255 
-0.3631996 0.2182504 -3.984807 0 0 0 58 83 139 255 
-0.368049 0.1651191 -3.992315 0 0 0 41 121 142 255 
-0.2373953 0.1292101 -3.056134 0 0 0 35 138 141 255 
-0.104925 0.1129699 -2.092007 0 0 0 49 103 142 255 
-0.04169083 0.08736974 -1.646849 0 0 0 59 81 139 255 
-0.04006487 0.05344012 -1.628043 0 0 0 64 69 136 255 
-0.02895117 0.01678821 -1.560492 0 0 0 72 33 115 255 
-0.04052413 -0.03448236 -1.676579 0 0 0 58 84 140 255 
-0.04092133 -0.08170143 -1.706009 0 0 0 49 104 142 255 
-0.04157859 -0.1191583 -1.729824 0 0 0 48 106 142 255 
-0.04452294 -0.1658206 -1.76427 0 0 0 52 96 141 255 
-0.03843915 -0.2077327 -1.739129 0 0 0 51 99 141 255 
-7.57575e-05 -0.2175767 -1.455523 0 0 0 44 114 142 255 
0.003224015 -0.2530195 -1.463547 0 0 0 38 130 142 255 
0.009902537 -0.2883166 -1.426948 0 0 0 64 70 136 255 
-0.02457529 -0.3733014 -1.705435 0 0 0 72 32 113 255 
0.001510322 -0.3869496 -1.503516 0 0 0 72 22 104 255 
0.01820618 -0.4132603 -1.451113 0 0 0 72 22 104 255 
0.01853079 -0.4547868 -1.445837 0 0 0 72 23 105 255 
0.01237625 -0.5067559 -1.491701 0 0 0 72 22 104 255 
0.009427786 -0.5566674 -1.509173 0 0 0 72 24 106 255 
-0.5325652 0.4377283 -5.480094 0 0 0 68 2 86 255 
-0.3905306 0.2838925 -4.468917 0 0 0 69 4 87 255 
-0.3509079 0.2172011 -4.216347 0 0 0 71 17 100 255 
-0.3284635 0.1668032 -4.009642 0 0 0 70 50 126 255 
-0.1959828 0.1323334 -3.013193 0 0 0 37 131 142 255 
-0.07696313 0.1138761 -2.107769 0 0 0 47 107 142 255 
-0.0209198 0.08623913 -1.697911 0 0 0 46 110 142 255 
-0.01794136 0.05261749 -1.667195 0 0 0 40 125 142 255 
-0.01317453 0.01239982 -1.647089 0 0 0 41 123 142 255 
-0.01072735 -0.03138402 -1.656345 0 0 0 41 121 142 255 
-0.008061349 -0.07628295 -1.662074 0 0 0 53 95 141 255 
0.007395506 -0.1009235 -1.555499 0 0 0 46 110 142 255 
0.01616758 -0.1359339 -1.495357 0 0 0 45 113 142 255 
0.0261988 -0.1710978 -1.434953 0 0 0 40 124 142 255 
0.03393906 -0.2075149 -1.387902 0 0 0 41 123 142 255 
0.0315063 -0.24868 -1.443223 0 0 0 33 143 141 255 
0.03227383 -0.290506 -1.453806 0 0 0 59 82 139 255 
0.007925212 -0.364833 -1.661807 0 0 0 53 95 141 255 
0.02853501 -0.3838249 -1.495093 0 0 0 72 20 103 255 
0.04073834 -0.4161155 -1.477854 0 0 0 72 22 104 255 
0.03963804 -0.4600071 -1.484273 0 0 0 72 22 104 255 
0.04198557 -0.498811 -1.459879 0 0 0 72 22 104 255 
0.04186401 -0.5436004 -1.454089 0 0 0 72 27 109 255 
-0.4778103 0.4395035 -5.450716 0 0 0 69 4 87 255 
-0.5045338 0.3630024 -5.704213 0 0 0 68 2 86 255 
-0.3348103 0.2862465 -4.379155 0 0 0 71 13 96 255 
-0.2843505 0.1692161 -3.991005 0 0 0 62 73 137 255 
-0.01842403 0.1697697 -1.838707 0 0 0 59 82 139 255 
-0.04311883 0.1166755 -2.075747 0 0 0 49 104 142 255 
0.006118774 0.08749518 -1.701275 0 0 0 69 56 130 255 
0.01031178 0.05455282 -1.658654 0 0 0 48 105 142 255 
0.01351726 0.01364085 -1.650425 0 0 0 45 112 142 255 
0.02020371 -0.02739641 -1.624028 0 0 0 45 112 142 255 
0.0256356 -0.06986925 -1.606027 0 0 0 62 76 138 255 
0.0376237 -0.09633058 -1.523135 0 0 0 50 101 142 255 
0.05289167 -0.1248183 -1.403703 0 0 0 44 114 142 255 
0.0597254 -0.1617827 -1.367028 0 0 0 44 114 142 255 
0.06439024 -0.2004546 -1.343681 0 0 0 45 113 142 255 
0.05682299 -0.2475059 -1.446348 0 0 0 66 64 134 255 
0.01467812 -0.3431524 -1.834712 0 0 0 72 24 106 255 
0.0291664 -0.3707945 -1.712252 0 0 0 71 46 124 255 
0.06211361 -0.3711207 -1.427646 0 0 0 72 22 104 255 
0.06618547 -0.4149382 -1.48096 0 0 0 72 20 103 255 
0.06249443 -0.4630889 -1.510869 0 0 0 72 20 103 255 
0.06858557 -0.4953918 -1.45128 0 0 0 72 23 105 255 
0.06189182 -0.5519102 -1.503981 0 0 0 72 24 106 255 
-0.4388465 0.4433605 -5.552056 0 0 0 69 5 89 255 
-0.4528635 0.365383 -5.710396 0 0 0 36 135 142 255 
-0.4391829 0.2845574 -5.659791 0 0 0 69 4 87 255 
-0.2501339 0.1698909 -4.055511 0 0 0 31 151 139 255 
-0.07071954 0.09821725 -2.579613 0 0 0 31 154 138 255 
-0.06496364 0.04569262 -2.573895 0 0 0 71 14 97 255 
0.01151568 0.04278502 -1.888024 0 0 0 72 27 109 255 
-0.01871163 -0.02014938 -2.177128 0 0 0 62 74 137 255 
0.04141763 -0.02982464 -1.674733 0 0 0 49 103 142 255 
0.05599236 -0.06556308 -1.573497 0 0 0 46 111 142 255 
0.07137662 -0.08839723 -1.454937 0 0 0 59 82 139 255 
0.07933396 -0.1224265 -1.394805 0 0 0 45 113 142 255 
0.08721527 -0.1579326 -1.346258 0 0 0 50 100 142 255 
0.07491699 -0.2155068 -1.476828 0 0 0 51 99 141 255 
0.05659446 -0.277683 -1.685885 0 0 0 38 129 142 255 
0.05886608 -0.3200607 -1.684373 0 0 0 46 111 142 255 
0.06494275 -0.3569899 -1.632835 0 0 0 59 81 139 255 
0.08221936 -0.37763 -1.477726 0 0 0 67 61 132 255 
0.08794793 -0.4198086 -1.519205 0 0 0 72 23 105 255 
0.08565223 -0.4661705 -1.537342 0 0 0 72 24 106 255 
0.09259719 -0.4964775 -1.465958 0 0 0 72 23 105 255 
0.09112889 -0.5436362 -1.471889 0 0 0 72 26 108 255 
-0.411831 0.5190187 -5.814322 0 0 0 68 2 86 255 
-0.4079629 0.4486234 -5.736697 0 0 0 68 2 86 255 
-0.4024743 0.3678225 -5.728191 0 0 0 33 143 141 255 
-0.3878225 0.2868962 -5.665595 0 0 0 69 4 87 255 
-0.2151605 0.1705796 -4.119847 0 0 0 31 152 139 255 
-0.04660898 0.1492542 -2.620306 0 0 0 67 62 133 255 
-0.04341865 0.09781978 -2.630951 0 0 0 34 140 141 255 
-0.03640437 0.04540524 -2.613277 0 0 0 30 155 138 255 
-0.06220746 -0.01040515 -2.844218 0 0 0 42 119 142 255 
-0.02681214 -0.04256621 -2.53769 0 0 0 50 102 142 255 
0.06574303 -0.03042147 -1.701542 0 0 0 56 89 140 255 
0.07471263 -0.07053897 -1.647773 0 0 0 43 117 142 255 
0.08320233 -0.09956935 -1.588495 0 0 0 54 93 141 255 
0.08465314 -0.1410267 -1.587569 0 0 0 70 50 126 255 
0.09971708 -0.1703089 -1.467628 0 0 0 66 65 134 255 
0.1077734 -0.2055364 -1.408595 0 0 0 53 94 141 255 
0.1038939 -0.2498843 -1.487642 0 0 0 56 89 140 255 
0.1000174 -0.2987414 -1.545481 0 0 0 71 46 124 255 
0.09256276 -0.3539979 -1.623971 0 0 0 72 40 120 255 
0.1064901 -0.3783869 -1.492355 0 0 0 72 23 105 255 
0.1182992 -0.4106102 -1.474929 0 0 0 72 20 103 255 
0.1114371 -0.4650021 -1.540184 0 0 0 72 22 104 255 
0.1167696 -0.4975696 -1.480496 0 0 0 72 24 106 255 
0.1153143 -0.5448486 -1.486422 0 0 0 72 26 108 255 
-0.3469139 0.3698997 -5.697945 0 0 0 35 137 142 255 
-0.1769667 0.171756 -4.160138 0 0 0 31 153 138 255 
-0.01756257 0.149672 -2.659594 0 0 0 32 146 140 255 
-0.1402487 0.04953137 -3.91091 0 0 0 58 83 139 255 
-0.003790379 0.04687163 -2.616729 0 0 0 32 146 140 255 
-0.01499492 -0.001420885 -2.716711 0 0 0 40 125 142 255 
0.06145221 -0.004022449 -1.981134 0 0 0 53 95 141 255 
0.09511474 -0.02739629 -1.680591 0 0 0 48 106 142 255 
0.1013668 -0.06934091 -1.650589 0 0 0 60 79 138 255 
0.08612147 -0.1207406 -1.82908 0 0 0 62 74 137 255 
0.1074141 -0.1435384 -1.625981 0 0 0 62 73 137 255 
0.1067424 -0.1907139 -1.660209 0 0 0 62 73 137 255 
0.1340461 -0.2029423 -1.39939 0 0 0 47 107 142 255 
0.1408316 -0.233131 -1.371884 0 0 0 42 119 142 255 
0.1451128 -0.2691505 -1.3471 0 0 0 41 121 142 255 
0.149313 -0.304506 -1.307808 0 0 0 50 101 142 255 
0.1522372 -0.3428606 -1.28276 0 0 0 66 63 133 255 
0.1470076 -0.4034542 -1.442217 0 0 0 71 14 97 255 
0.1383315 -0.4617251 -1.531105 0 0 0 72 20 103 255 
0.1367322 -0.5076164 -1.54185 0 0 0 72 20 103 255 
0.1440243 -0.5366248 -1.453956 0 0 0 72 23 105 255 
-0.301153 0.3726492 -5.762875 0 0 0 50 100 142 255 
-0.1394671 0.1726985 -4.21216 0 0 0 31 156 137 255 
0.01538497 0.1511394 -2.662907 0 0 0 31 150 139 255 
-0.00977391 0.08782068 -2.971951 0 0 0 31 153 138 255 
0.02321148 0.04542342 -2.679645 0 0 0 34 140 141 255 
0.02612966 0.004778951 -2.636547 0 0 0 38 129 142 255 
0.1137452 0.01376435 -1.73366 0 0 0 52 96 141 255 
0.1353369 -0.01537481 -1.540302 0 0 0 61 78 138 255 
0.1357554 -0.06100601 -1.569905 0 0 0 51 98 141 255 
0.1270075 -0.1061352 -1.689063 0 0 0 43 116 142 255 
0.1426283 -0.1325425 -1.533519 0 0 0 63 71 136 255 
0.1409934 -0.1801226 -1.57973 0 0 0 46 109 142 255 
0.1375914 -0.2310676 -1.639117 0 0 0 48 106 142 255 
0.1370055 -0.2740742 -1.694314 0 0 0 40 125 142 255 
0.1582067 -0.2864131 -1.479735 0 0 0 56 88 140 255 
0.1579643 -0.3302099 -1.48752 0 0 0 66 63 133 255 
0.1576119 -0.3761026 -1.497587 0 0 0 72 23 105 255 
0.1701972 -0.4063424 -1.468246 0 0 0 72 22 104 255 
0.164079 -0.4605841 -1.533623 0 0 0 72 26 108 255 
0.1635448 -0.5042372 -1.532642 0 0 0 71 16 99 255 
0.1662003 -0.5425755 -1.491623 0 0 0 72 26 108 255 
-0.2542573 0.293361 -5.908171 0 0 0 68 58 131 255 
-0.1040655 0.2276624 -4.339879 0 0 0 68 59 132 255 
-0.09050322 0.1759535 -4.144491 0 0 0 39 126 142 255 
0.05587989 0.1550083 -2.582391 0 0 0 35 138 141 255 
0.01759428 0.08614305 -3.058831 0 0 0 69 5 89 255 
0.0393663 0.03764832 -2.873768 0 0 0 62 73 137 255 
0.06625739 0.01091829 -2.556083 0 0 0 58 83 139 255 
0.133616 0.009481817 -1.819716 0 0 0 50 101 142 255 
0.1561596 -0.01872525 -1.602343 0 0 0 45 112 142 255 
0.1516336 -0.07003656 -1.69147 0 0 0 46 109 142 255 
0.1538956 -0.1049536 -1.691566 0 0 0 47 107 142 255 
0.1736474 -0.1252824 -1.476467 0 0 0 58 84 140 255 
0.176276 -0.1669069 -1.47523 0 0 0 44 115 142 255 
0.1771704 -0.2109378 -1.487294 0 0 0 44 113 142 255 
0.178719 -0.2495835 -1.518931 0 0 0 46 109 142 255 
0.1216629 -0.3902461 -2.228197 0 0 0 33 144 141 255 
0.1773199 -0.3863995 -1.570814 0 0 0 71 16 99 255 
0.190835 -0.4152279 -1.529528 0 0 0 71 16 99 255 
0.1945946 -0.4488809 -1.477114 0 0 0 71 19 101 255 
0.1845301 -0.5142651 -1.593777 0 0 0 71 16 99 255 
0.187863 -0.5508746 -1.540904 0 0 0 72 22 104 255 
-0.1993433 0.2957006 -5.888925 0 0 0 34 139 141 255 
-0.05678475 0.2300799 -4.295843 0 0 0 37 133 142 255 
0.07708928 0.2059917 -2.665791 0 0 0 35 138 141 255 
0.0843474 0.1550542 -2.633067 0 0 0 33 144 141 255 
-0.05029368 0.04031387 -4.304755 0 0 0 63 72 137 255 
0.07490006 -0.003711611 -2.8455 0 0 0 60 79 138 255 
0.0900169 -0.04623356 -2.693385 0 0 0 42 120 142 255 
0.1719185 -0.02743143 -1.735852 0 0 0 51 98 141 255 
0.1613095 -0.08713642 -1.908351 0 0 0 59 81 139 255 
0.1674803 -0.1192977 -1.860657 0 0 0 51 99 141 255 
0.1859687 -0.1412649 -1.645296 0 0 0 58 83 139 255 
0.2055813 -0.160447 -1.429898 0 0 0 44 114 142 255 
0.211166 -0.1967243 -1.382646 0 0 0 46 111 142 255 
0.2100169 -0.2391586 -1.449973 0 0 0 42 119 142 255 
0.1809402 -0.3357323 -1.851617 0 0 0 44 114 142 255 
0.1926712 -0.3600146 -1.705083 0 0 0 72 23 105 255 
0.2069793 -0.3776664 -1.525821 0 0 0 71 19 101 255 
0.210439 -0.4280865 -1.614315 0 0 0 71 13 96 255 
0.214153 -0.5042199 -1.54899 0 0 0 71 13 96 255 
0.208345 -0.5638634 -1.613545 0 0 0 72 23 105 255 
-0.06725562 0.2992421 -4.888381 0 0 0 63 72 137 255 
-0.006335139 0.2329749 -4.203642 0 0 0 35 138 141 255 
0.1138585 0.2083114 -2.620667 0 0 0 31 156 137 255 
0.1282872 0.1605333 -2.492247 0 0 0 60 79 138 255 
-0.01378262 0.03899541 -4.391955 0 0 0 31 153 138 255 
0.1999723 0.02120289 -1.68113 0 0 0 61 78 138 255 
0.191971 -0.03340328 -1.83353 0 0 0 69 55 129 255 
0.1904319 -0.0849112 -1.898712 0 0 0 63 72 137 255 
0.1971679 -0.115888 -1.839082 0 0 0 58 84 140 255 
0.1906992 -0.1705699 -1.945097 0 0 0 57 86 140 255 
0.2022473 -0.2033948 -1.824442 0 0 0 69 55 129 255 
0.2249456 -0.2145355 -1.53911 0 0 0 47 108 142 255 
0.2268933 -0.2535505 -1.5707 0 0 0 43 116 142 255 
0.2398588 -0.2731307 -1.415213 0 0 0 53 94 141 255 
0.2363229 -0.3233272 -1.470484 0 0 0 72 32 113 255 
0.2293873 -0.3841503 -1.575179 0 0 0 70 11 94 255 
0.2327092 -0.5231382 -1.65693 0 0 0 70 11 94 255 
0.2353555 -0.5603904 -1.603916 0 0 0 70 11 94 255 
0.02382177 0.3018396 -4.281539 0 0 0 44 113 142 255 
0.1074282 0.2453727 -3.213453 0 0 0 63 71 136 255 
0.1483268 0.2101481 -2.599231 0 0 0 30 157 137 255 
0.03054577 0.04129389 -4.383274 0 0 0 70 7 90 255 
0.03337991 -0.03168896 -4.43656 0 0 0 31 154 138 255 
0.2217123 0.06141159 -1.727324 0 0 0 59 82 139 255 
0.04797626 -0.1439665 -4.251571 0 0 0 70 51 127 255 
0.1186242 -0.141648 -3.304077 0 0 0 71 45 123 255 
0.1543657 -0.163411 -2.843278 0 0 0 71 19 101 255 
0.2378739 -0.09707722 -1.650403 0 0 0 63 71 136 255 
0.2295542 -0.1535698 -1.792375 0 0 0 66 63 133 255 
0.2092468 -0.2368337 -2.13589 0 0 0 68 58 131 255 
0.2200992 -0.2699674 -2.004596 0 0 0 37 132 142 255 
0.2141628 -0.3296911 -2.166367 0 0 0 65 66 135 255 
0.1625468 -0.4924062 -2.994463 0 0 0 37 132 142 255 
0.1657526 -0.5439558 -2.952787 0 0 0 33 143 141 255 
0.1635655 -0.6103716 -2.996093 0 0 0 35 136 142 255 
0.1878171 -0.6288571 -2.822995 0 0 0 56 88 140 255 
0.201601 -0.643536 -2.591499 0 0 0 55 90 140 255 
0.213448 -0.6597884 -2.388583 0 0 0 55 91 141 255 
0.2238042 -0.6788933 -2.204875 0 0 0 52 96 141 255 
0.08032438 0.3037976 -4.080986 0 0 0 37 131 142 255 
0.150096 0.247898 -3.120182 0 0 0 36 135 142 255 
0.184107 0.2123933 -2.55363 0 0 0 31 162 135 255 
0.18824 0.1615719 -2.556743 0 0 0 71 14 97 255 
-0.02588427 -0.01443544 -5.929988 0 0 0 72 31 112 255 
0.2518012 0.0993596 -1.700174 0 0 0 71 46 124 255 
0.07900748 -0.08369389 -4.383761 0 0 0 67 61 132 255 
0.09202948 -0.1406376 -4.230617 0 0 0 71 45 123 255 
0.1508672 -0.1454241 -3.378272 0 0 0 33 143 141 255 
0.2038367 -0.1408658 -2.594975 0 0 0 71 16 99 255 
0.2175267 -0.1662861 -2.415557 0 0 0 71 42 122 255 
0.2606999 -0.1463565 -1.73468 0 0 0 55 90 140 255 
0.2619293 -0.193089 -1.756974 0 0 0 64 69 136 255 
0.2502671 -0.2658685 -1.982781 0 0 0 38 130 142 255 
0.2480839 -0.3191951 -2.097102 0 0 0 35 136 142 255 
0.1797615 -0.5322946 -3.293437 0 0 0 72 26 108 255 
0.1973633 -0.5495961 -3.002521 0 0 0 62 76 138 255 
0.1954176 -0.6164836 -3.045783 0 0 0 39 126 142 255 
0.2227103 -0.6234794 -2.801592 0 0 0 62 74 137 255 
0.2330737 -0.6442934 -2.605448 0 0 0 57 85 140 255 
0.2443399 -0.6584941 -2.39067 0 0 0 57 86 140 255 
0.2522259 -0.6823292 -2.230407 0 0 0 49 103 142 255 
0.1133989 0.4351516 -4.071922 0 0 0 69 4 87 255 
0.1176848 0.3054965 -4.155507 0 0 0 33 145 140 255 
0.1830512 0.2488991 -3.170352 0 0 0 31 152 139 255 
0.2142723 0.213093 -2.591628 0 0 0 37 131 142 255 
0.02090293 0.07025674 -5.923605 0 0 0 70 8 92 255 
0.2183926 0.1087355 -2.665163 0 0 0 70 11 94 255 
0.07598436 -0.06451723 -5.220164 0 0 0 70 52 128 255 
0.1251484 -0.0792689 -4.338656 0 0 0 71 14 97 255 
0.1378685 -0.1350387 -4.173517 0 0 0 72 40 120 255 
0.189415 -0.142113 -3.356711 0 0 0 31 149 139 255 
0.2877029 -0.0623081 -1.677672 0 0 0 69 56 130 255 
0.285235 -0.1047154 -1.761275 0 0 0 71 46 124 255 
0.2588857 -0.1984186 -2.26089 0 0 0 68 58 131 255 
0.2924404 -0.1853322 -1.699128 0 0 0 52 96 141 255 
0.2808043 -0.2603516 -1.948877 0 0 0 41 121 142 255 
0.2760931 -0.3210607 -2.122675 0 0 0 38 173 129 255 
0.2037085 -0.563798 -3.533072 0 0 0 62 73 137 255 
0.2208103 -0.5799774 -3.218019 0 0 0 72 41 121 255 
0.2309698 -0.6131469 -3.036124 0 0 0 49 103 142 255 
0.2567379 -0.6201136 -2.791788 0 0 0 62 74 137 255 
0.2647031 -0.6450605 -2.619206 0 0 0 60 79 138 255 
0.2752433 -0.6572146 -2.392569 0 0 0 56 89 140 255 
0.2827359 -0.6787498 -2.220511 0 0 0 51 98 141 255 
0.1584551 0.4357428 -4.014447 0 0 0 70 8 92 255 
0.1709275 0.3072778 -3.954231 0 0 0 70 48 126 255 
0.2524487 0.2565446 -2.549325 0 0 0 67 61 132 255 
0.2455368 0.2140075 -2.617472 0 0 0 37 172 130 255 
0.2509821 0.1632635 -2.596589 0 0 0 72 33 115 255 
0.2990928 0.1435387 -1.756907 0 0 0 68 58 131 255 
0.1287976 -0.05862084 -5.139108 0 0 0 69 5 89 255 
0.1707234 -0.07488844 -4.293251 0 0 0 72 22 104 255 
0.1780854 -0.1356055 -4.211795 0 0 0 71 45 123 255 
0.2294999 -0.1361896 -3.29905 0 0 0 66 65 134 255 
0.261513 -0.1501898 -2.742149 0 0 0 64 70 136 255 
0.3096139 -0.1090599 -1.822489 0 0 0 65 66 135 255 
0.2845338 -0.2068218 -2.357999 0 0 0 69 56 130 255 
0.3181908 -0.1868741 -1.724465 0 0 0 62 73 137 255 
0.3229498 -0.2246138 -1.664884 0 0 0 50 102 142 255 
0.3139364 -0.2968156 -1.945988 0 0 0 31 148 140 255 
0.2377574 -0.5737802 -3.61829 0 0 0 56 89 140 255 
0.256257 -0.5802674 -3.231884 0 0 0 64 69 136 255 
0.2674958 -0.6060615 -3.002567 0 0 0 61 77 138 255 
0.2911587 -0.6147891 -2.769948 0 0 0 63 71 136 255 
0.29701 -0.6437404 -2.620973 0 0 0 60 80 139 255 
0.3051078 -0.6603767 -2.417842 0 0 0 56 88 140 255 
0.3131157 -0.6751906 -2.210423 0 0 0 52 97 141 255 
0.1968485 0.4385636 -4.07651 0 0 0 68 2 86 255 
0.2741917 0.359554 -2.569481 0 0 0 69 4 87 255 
0.2876034 0.2584328 -2.491035 0 0 0 72 35 116 255 
0.2839951 0.2174278 -2.499318 0 0 0 48 106 142 255 
0.2874973 0.1668517 -2.514381 0 0 0 70 7 90 255 
0.3031961 0.1262895 -2.261428 0 0 0 72 40 120 255 
0.2091678 -0.07835004 -4.391193 0 0 0 70 7 90 255 
0.2171303 -0.1384595 -4.285728 0 0 0 71 42 122 255 
0.2651479 -0.1364572 -3.324816 0 0 0 70 48 126 255 
0.2942894 -0.1498376 -2.75577 0 0 0 66 65 134 255 
0.3005925 -0.1853261 -2.671559 0 0 0 66 63 133 255 
0.3442177 -0.1382054 -1.691554 0 0 0 60 79 138 255 
0.3371507 -0.2068888 -1.916483 0 0 0 63 71 136 255 
0.3461225 -0.2335975 -1.749539 0 0 0 50 102 142 255 
0.3393639 -0.3048673 -2.018738 0 0 0 31 149 139 255 
0.2752392 -0.5755159 -3.64394 0 0 0 51 98 141 255 
0.2880042 -0.5946647 -3.340418 0 0 0 58 84 140 255 
0.3026453 -0.6027746 -2.992459 0 0 0 64 70 136 255 
0.3230454 -0.6193839 -2.807023 0 0 0 72 40 120 255 
0.3311398 -0.6340605 -2.575313 0 0 0 71 42 122 255 
0.2907532 -0.8801689 -3.597959 0 0 0 52 97 141 255 
0.3173566 -0.8046702 -2.870583 0 0 0 66 65 134 255 
0.2417204 0.4388545 -4.006503 0 0 0 69 4 87 255 
0.3164542 0.3101986 -2.447523 0 0 0 69 4 87 255 
0.2402582 -0.09342954 -4.704439 0 0 0 72 31 112 255 
0.2603405 -0.1359885 -4.275674 0 0 0 71 44 122 255 
0.300179 -0.13848 -3.374289 0 0 0 70 50 126 255 
0.3218131 -0.1614233 -2.912595 0 0 0 71 47 125 255 
0.3329988 -0.185099 -2.684945 0 0 0 68 59 132 255 
0.3556576 -0.179131 -2.110347 0 0 0 69 53 129 255 
0.370585 -0.1899618 -1.774686 0 0 0 61 78 138 255 
0.3660257 -0.2569012 -1.953138 0 0 0 42 118 142 255 
0.3673322 -0.3067774 -2.043772 0 0 0 33 145 140 255 
0.3142555 -0.5723312 -3.633728 0 0 0 53 94 141 255 
0.3185915 -0.6195817 -3.519965 0 0 0 41 175 127 255 
0.2804671 -0.8626772 -4.640406 0 0 0 72 24 106 255 
0.3093137 -0.8630383 -4.275359 0 0 0 71 19 101 255 
0.3135565 -0.904618 -4.112004 0 0 0 72 22 104 255 
0.3231788 -0.9117594 -3.776435 0 0 0 30 157 137 255 
0.329144 -0.9361789 -3.542672 0 0 0 43 117 142 255 
0.2870678 0.4383891 -3.900235 0 0 0 70 7 90 255 
0.35911 0.2629533 -2.277832 0 0 0 69 5 89 255 
0.3637878 0.1282872 -2.275957 0 0 0 70 11 94 255 
0.3684421 0.07901901 -2.270092 0 0 0 72 22 104 255 
0.285179 -0.09227958 -4.718169 0 0 0 72 38 119 255 
0.3042086 -0.1320321 -4.241413 0 0 0 71 46 124 255 
0.3369617 -0.137882 -3.387673 0 0 0 71 46 124 255 
0.3527456 -0.1689861 -3.021475 0 0 0 71 44 122 255 
0.3659315 -0.183798 -2.686188 0 0 0 68 57 131 255 
0.3754897 -0.2090947 -2.421759 0 0 0 68 57 131 255 
0.3943314 -0.2020173 -1.894941 0 0 0 65 66 135 255 
0.3973021 -0.244323 -1.858939 0 0 0 48 106 142 255 
0.3949053 -0.3117447 -2.092435 0 0 0 36 170 131 255 
0.4078246 -0.3052636 -1.710165 0 0 0 67 62 133 255 
0.3567535 -0.6163319 -3.509516 0 0 0 38 173 129 255 
0.3250206 -0.8609172 -4.642087 0 0 0 72 24 106 255 
0.3655537 -0.7725928 -3.7444 0 0 0 72 28 110 255 
0.3598289 -0.8695796 -3.924497 0 0 0 72 28 110 255 
0.3624265 -0.9102116 -3.777883 0 0 0 31 148 140 255 
0.366007 -0.9416693 -3.579396 0 0 0 44 113 142 255 
0.2745854 0.4735846 -5.604438 0 0 0 69 4 87 255 
0.3816553 0.3600974 -2.249506 0 0 0 71 19 101 255 
0.3845707 0.312582 -2.293876 0 0 0 71 13 96 255 
0.393592 0.265327 -2.146886 0 0 0 70 7 90 255 
0.2938792 0.001359671 -5.861253 0 0 0 72 27 109 255 
0.3179451 -0.05589965 -5.254866 0 0 0 56 88 140 255 
0.3309143 -0.08986357 -4.707669 0 0 0 72 35 116 255 
0.3457127 -0.1326309 -4.278708 0 0 0 72 40 120 255 
0.3754686 -0.1329511 -3.341012 0 0 0 71 47 125 255 
0.3880481 -0.1666318 -3.010633 0 0 0 71 45 123 255 
0.3979718 -0.185757 -2.723074 0 0 0 68 58 131 255 
0.4062075 -0.2102614 -2.446627 0 0 0 69 55 129 255 
0.4160522 -0.2297595 -2.158173 0 0 0 69 56 130 255 
0.4223103 -0.2575276 -1.978931 0 0 0 40 125 142 255 
0.4241529 -0.3106051 -2.093342 0 0 0 35 169 131 255 
0.3942949 -0.5513093 -3.505615 0 0 0 32 146 140 255 
0.3947812 -0.6131068 -3.498827 0 0 0 35 138 141 255 
0.3956091 -0.6755126 -3.482218 0 0 0 33 143 141 255 
0.4341744 -0.5267771 -2.278046 0 0 0 49 103 142 255 
0.4356684 -0.5572821 -2.165277 0 0 0 37 131 142 255 
0.4323263 -0.6290189 -2.281283 0 0 0 48 105 142 255 
0.4101359 -0.882054 -3.286341 0 0 0 32 146 140 255 
0.3489565 0.2381807 -5.410695 0 0 0 69 5 89 255 
0.3457916 0.002532035 -5.886614 0 0 0 72 26 108 255 
0.3671538 -0.05293438 -5.232156 0 0 0 62 76 138 255 
0.3757464 -0.08939019 -4.732827 0 0 0 72 35 116 255 
0.3891612 -0.1287328 -4.243912 0 0 0 72 41 121 255 
0.4117117 -0.1341242 -3.377872 0 0 0 70 48 126 255 
0.423212 -0.1643003 -2.999574 0 0 0 70 50 126 255 
0.4311361 -0.1844792 -2.723921 0 0 0 67 62 133 255 
0.4381182 -0.2066659 -2.423557 0 0 0 69 56 130 255 
0.445524 -0.2299239 -2.170856 0 0 0 69 56 130 255 
0.4508898 -0.2564267 -1.979659 0 0 0 38 130 142 255 
0.4530043 -0.3125236 -2.117871 0 0 0 41 175 127 255 
0.4547981 -0.3603562 -2.127697 0 0 0 32 164 134 255 
0.4551138 -0.4085825 -2.122854 0 0 0 30 155 138 255 
0.4554869 -0.4588552 -2.120242 0 0 0 31 158 137 255 
0.4662829 -0.5039742 -2.148555 0 0 0 39 173 129 255 
0.4657456 -0.5498984 -2.130537 0 0 0 40 174 128 255 
0.4647853 -0.5992644 -2.128686 0 0 0 33 166 133 255 
0.4633717 -0.6530461 -2.133621 0 0 0 45 178 125 255 
0.3972458 0.001998454 -5.959625 0 0 0 72 27 109 255 
0.4153608 -0.05216792 -5.257087 0 0 0 67 61 132 255 
0.4212417 -0.08765641 -4.733751 0 0 0 72 38 119 255 
0.4312952 -0.1286086 -4.268723 0 0 0 72 40 120 255 
0.4490712 -0.1318448 -3.366644 0 0 0 71 47 125 255 
0.4579159 -0.1639564 -3.012216 0 0 0 71 45 123 255 
0.4646153 -0.1810659 -2.700664 0 0 0 69 56 130 255 
0.4692888 -0.2066632 -2.436108 0 0 0 68 58 131 255 
0.4754347 -0.2274866 -2.159504 0 0 0 69 53 129 255 
0.4793342 -0.2567631 -1.992127 0 0 0 39 127 142 255 
0.4826637 -0.3083686 -2.094615 0 0 0 36 170 131 255 
0.4844845 -0.3559769 -2.104472 0 0 0 31 160 136 255 
0.484869 -0.4022215 -2.087798 0 0 0 31 153 138 255 
0.4849535 -0.4558709 -2.108958 0 0 0 31 160 136 255 
0.4959678 -0.4989285 -2.125391 0 0 0 36 170 131 255 
0.4951083 -0.548785 -2.131064 0 0 0 38 173 129 255 
0.4941132 -0.5981511 -2.129228 0 0 0 33 166 133 255 
0.4924979 -0.6565713 -2.157731 0 0 0 49 181 123 255 
0.4487652 -0.00146845 -6.116271 0 0 0 72 28 110 255 
0.4640781 -0.0503377 -5.25775 0 0 0 70 50 126 255 
0.4664136 -0.08784351 -4.770345 0 0 0 72 37 118 255 
0.4741429 -0.1255158 -4.245371 0 0 0 72 37 118 255 
0.4863869 -0.1287282 -3.343216 0 0 0 70 50 126 255 
0.4926808 -0.164604 -3.036605 0 0 0 70 48 126 255 
0.4975595 -0.180899 -2.713054 0 0 0 68 57 131 255 
0.5008459 -0.2031119 -2.412647 0 0 0 69 56 130 255 
0.504914 -0.2302795 -2.195684 0 0 0 69 55 129 255 
0.5079256 -0.2571082 -2.004421 0 0 0 39 128 142 255 
0.5118684 -0.308788 -2.106888 0 0 0 34 167 133 255 
0.5141483 -0.3434812 -2.021617 0 0 0 55 91 141 255 
0.5145084 -0.3854208 -1.981324 0 0 0 58 83 139 255 
0.5145872 -0.4417097 -2.026367 0 0 0 39 126 142 255 
0.5256085 -0.4742867 -1.983658 0 0 0 62 73 137 255 
0.5247313 -0.5269121 -2.01322 0 0 0 44 115 142 255 
0.5236409 -0.5816942 -2.047007 0 0 0 38 129 142 255 
0.5221002 -0.6461961 -2.111019 0 0 0 31 156 137 255 
0.5030217 0.003039807 -6.044746 0 0 0 72 24 106 255 
0.5127667 -0.04906663 -5.270103 0 0 0 72 40 120 255 
0.5120291 -0.08803621 -4.806663 0 0 0 72 36 117 255 
0.5164809 -0.1276477 -4.305595 0 0 0 71 42 122 255 
0.5232058 -0.1333629 -3.427283 0 0 0 71 45 123 255 
0.5277696 -0.1633034 -3.036863 0 0 0 71 44 122 255 
0.5306544 -0.1807428 -2.725244 0 0 0 68 58 131 255 
0.5320885 -0.2043201 -2.436759 0 0 0 69 55 129 255 
0.5348312 -0.2278711 -2.183968 0 0 0 70 52 128 255 
0.5366601 -0.2560436 -2.004626 0 0 0 39 128 142 255 
0.541203 -0.3077027 -2.107077 0 0 0 34 168 132 255 
0.5481422 -0.7731826 -5.172488 0 0 0 70 52 128 255 
0.5480942 -0.825232 -4.985332 0 0 0 72 23 105 255 
0.5476866 -0.8319438 -4.516002 0 0 0 72 20 103 255 
0.5636883 -0.8670708 -4.363415 0 0 0 72 20 103 255 
0.5612101 -0.8827094 -4.046284 0 0 0 71 17 100 255 
0.5587305 -0.9005671 -3.769716 0 0 0 55 90 140 255 
0.5562102 -0.9344382 -3.583046 0 0 0 50 100 142 255 
0.556608 0.00458774 -6.056839 0 0 0 72 28 110 255 
0.5616027 -0.04781416 -5.282157 0 0 0 72 35 116 255 
0.5580108 -0.08698049 -4.818736 0 0 0 72 38 119 255 
0.5593852 -0.1268169 -4.317652 0 0 0 72 40 120 255 
0.5604985 -0.1285691 -3.379462 0 0 0 71 46 124 255 
0.5630326 -0.1649437 -3.072786 0 0 0 71 47 125 255 
0.5637679 -0.178462 -2.713326 0 0 0 69 55 129 255 
0.5636212 -0.2055333 -2.460678 0 0 0 69 55 129 255 
0.5646762 -0.22678 -2.183999 0 0 0 70 52 128 255 
0.565396 -0.2549931 -2.004654 0 0 0 41 122 142 255 
0.5704522 -0.3051206 -2.095183 0 0 0 32 163 134 255 
0.5960788 -0.7730598 -5.184391 0 0 0 69 55 129 255 
0.5945874 -0.8200469 -4.961617 0 0 0 71 13 96 255 
0.5893711 -0.7875457 -4.243392 0 0 0 71 17 100 255 
0.6068985 -0.8713808 -4.398888 0 0 0 71 17 100 255 
0.6028188 -0.893651 -4.11718 0 0 0 71 16 99 255 
0.59828 -0.9057022 -3.805116 0 0 0 54 93 141 255 
0.593821 -0.9238005 -3.53598 0 0 0 52 97 141 255 
0.6100333 0.00734964 -6.032627 0 0 0 72 23 105 255 
0.6101347 -0.04445913 -5.245964 0 0 0 72 36 117 255 
0.6033735 -0.08156833 -4.746643 0 0 0 72 31 112 255 
0.6023216 -0.1252653 -4.31747 0 0 0 72 37 118 255 
0.598066 -0.1297841 -3.415198 0 0 0 71 45 123 255 
0.5978204 -0.1597815 -3.024773 0 0 0 71 46 124 255 
0.597008 -0.178333 -2.725109 0 0 0 69 53 129 255 
0.5950305 -0.2032166 -2.448581 0 0 0 68 57 131 255 
0.5942341 -0.2231142 -2.159987 0 0 0 68 57 131 255 
0.5941316 -0.2539566 -2.004507 0 0 0 40 125 142 255 
0.6000342 -0.3070837 -2.118823 0 0 0 36 170 131 255 
0.6441601 -0.7729541 -5.196002 0 0 0 72 38 119 255 
0.6074557 -0.4604748 -2.515639 0 0 0 72 22 104 255 
0.6302212 -0.7711599 -4.148343 0 0 0 72 24 106 255 
0.6499669 -0.8698344 -4.39858 0 0 0 71 19 101 255 
0.6428372 -0.8776774 -4.034177 0 0 0 71 19 101 255 
0.6375173 -0.9020963 -3.793081 0 0 0 59 82 139 255 
0.6315887 -0.9224386 -3.535779 0 0 0 52 96 141 255 
0.6629907 0.01048473 -5.996096 0 0 0 72 24 106 255 
0.6604553 -0.04747596 -5.353317 0 0 0 72 31 112 255 
0.6494989 -0.08181003 -4.782121 0 0 0 72 38 119 255 
0.6450695 -0.1230007 -4.305048 0 0 0 72 40 120 255 
0.6347035 -0.1250506 -3.366923 0 0 0 71 42 122 255 
0.6330402 -0.1595046 -3.036346 0 0 0 71 44 122 255 
0.6308082 -0.1803401 -2.760592 0 0 0 69 53 129 255 
0.6262937 -0.2009209 -2.436292 0 0 0 70 52 128 255 
0.624583 -0.2259337 -2.195438 0 0 0 69 53 129 255 
0.6228663 -0.2529342 -2.004184 0 0 0 41 121 142 255 
0.6294419 -0.306039 -2.118473 0 0 0 36 170 131 255 
0.6401591 -0.4137222 -2.568155 0 0 0 62 74 137 255 
0.6382726 -0.4524065 -2.467786 0 0 0 63 71 136 255 
0.6374642 -0.4987644 -2.417288 0 0 0 72 29 111 255 
0.6935567 -0.872213 -4.421683 0 0 0 71 19 101 255 
0.6815989 -0.8596933 -3.939116 0 0 0 71 19 101 255 
0.6760986 -0.8941482 -3.757215 0 0 0 59 81 139 255 
0.6698587 -0.9257089 -3.558897 0 0 0 53 95 141 255 
0.7179917 0.009508699 -6.079154 0 0 0 71 19 101 255 
0.7087244 -0.04364404 -5.304536 0 0 0 72 26 108 255 
0.6965705 -0.08329818 -4.841274 0 0 0 72 37 118 255 
0.6887084 -0.1236881 -4.340265 0 0 0 72 40 120 255 
0.6726321 -0.1262892 -3.402199 0 0 0 71 47 125 255 
0.6684022 -0.1592398 -3.047702 0 0 0 71 47 125 255 
0.6639189 -0.1781084 -2.748064 0 0 0 69 53 129 255 
0.6576939 -0.1998188 -2.435751 0 0 0 69 53 129 255 
0.6542104 -0.2235945 -2.182992 0 0 0 70 51 127 255 
0.651891 -0.2533341 -2.015598 0 0 0 42 119 142 255 
0.658848 -0.3050087 -2.117943 0 0 0 35 169 131 255 
0.669804 -0.3996746 -2.472481 0 0 0 61 77 138 255 
0.66882 -0.446106 -2.431617 0 0 0 60 80 139 255 
0.6689079 -0.4995246 -2.4286 0 0 0 60 80 139 255 
0.7237645 -0.7946855 -3.959243 0 0 0 70 8 92 255 
0.7245036 -0.8748015 -4.032888 0 0 0 71 13 96 255 
0.7168669 -0.9036837 -3.815479 0 0 0 57 86 140 255 
0.7074423 -0.9220752 -3.54646 0 0 0 52 96 141 255 
0.743054 -0.0823147 -4.852214 0 0 0 72 32 113 255 
0.7311163 -0.1207372 -4.315344 0 0 0 71 42 122 255 
0.7096297 -0.1241508 -3.389376 0 0 0 71 44 122 255 
0.7032107 -0.1570584 -3.034928 0 0 0 71 45 123 255 
0.698294 -0.1801281 -2.783127 0 0 0 70 51 127 255 
0.6901545 -0.2022437 -2.470833 0 0 0 69 53 129 255 
0.6844101 -0.2238493 -2.194216 0 0 0 69 53 129 255 
0.6803278 -0.2509322 -2.003009 0 0 0 43 116 142 255 
0.6882499 -0.303993 -2.117233 0 0 0 35 169 131 255 
0.7017056 -0.4001992 -2.483604 0 0 0 62 73 137 255 
0.6977996 -0.4346468 -2.35966 0 0 0 62 76 138 255 
0.6978438 -0.4873416 -2.356763 0 0 0 61 77 138 255 
0.7738912 -0.8400154 -4.242231 0 0 0 70 7 90 255 
0.7665353 -0.879581 -4.067315 0 0 0 72 20 103 255 
0.7555543 -0.8979628 -3.79093 0 0 0 70 50 126 255 
0.7456656 -0.9230686 -3.557335 0 0 0 65 66 135 255 
0.7752546 -0.1214493 -4.350024 0 0 0 72 37 118 255 
0.7477173 -0.1245638 -3.412217 0 0 0 70 48 126 255 
0.739551 -0.158747 -3.069759 0 0 0 72 37 118 255 
0.730971 -0.1768744 -2.758244 0 0 0 69 55 129 255 
0.7217631 -0.2011653 -2.469902 0 0 0 69 53 129 255 
0.7156162 -0.2266829 -2.229101 0 0 0 69 55 129 255 
0.7090536 -0.2499526 -2.002159 0 0 0 42 120 142 255 
0.7172 -0.3014933 -2.104446 0 0 0 33 165 133 255 
0.7310406 -0.3910712 -2.423233 0 0 0 65 68 135 255 
0.7286145 -0.4335967 -2.358737 0 0 0 56 89 140 255 
0.7295153 -0.4899878 -2.379549 0 0 0 62 76 138 255 
0.8145856 -0.8327529 -4.205404 0 0 0 70 10 93 255 
0.8113514 -0.8946633 -4.160539 0 0 0 72 20 103 255 
0.8009883 -0.9249165 -3.943023 0 0 0 72 20 103 255 
0.7872766 -0.9401736 -3.650356 0 0 0 72 26 108 255 
0.8767346 -0.06140235 -5.827327 0 0 0 71 42 122 255 
0.8738738 -0.1287636 -5.819256 0 0 0 72 40 120 255 
0.8757722 -0.2068705 -5.78475 0 0 0 70 10 93 255 
0.7831724 -0.1199444 -3.363058 0 0 0 71 44 122 255 
0.7733608 -0.1546818 -3.032652 0 0 0 71 46 124 255 
0.7623565 -0.1715419 -2.70928 0 0 0 69 56 130 255 
0.7533664 -0.2001025 -2.468779 0 0 0 70 52 128 255 
0.74523 -0.2243883 -2.216104 0 0 0 70 50 126 255 
0.7377745 -0.2489871 -2.001132 0 0 0 42 120 142 255 
0.7475575 -0.3035017 -2.12717 0 0 0 34 167 133 255 
0.7633108 -0.3932395 -2.445856 0 0 0 66 64 134 255 
0.760468 -0.4360118 -2.381354 0 0 0 56 88 140 255 
0.7599033 -0.4871034 -2.366599 0 0 0 59 82 139 255 
0.8652436 -0.8624213 -4.393089 0 0 0 71 19 101 255 
0.8540348 -0.8973845 -4.182611 0 0 0 71 19 101 255 
0.837459 -0.9083488 -3.859025 0 0 0 71 16 99 255 
0.8251966 -0.9365845 -3.637208 0 0 0 71 16 99 255 
0.9227282 0.02434775 -5.844673 0 0 0 65 66 135 255 
0.9256217 -0.05658028 -5.753305 0 0 0 71 19 101 255 
0.9216068 -0.1221557 -5.721346 0 0 0 70 8 92 255 
0.9292843 -0.2073143 -5.818522 0 0 0 70 7 90 255 
0.820273 -0.1187139 -3.361524 0 0 0 72 27 109 255 
0.8078595 -0.1525627 -3.019243 0 0 0 71 44 122 255 
0.7965769 -0.1725464 -2.731776 0 0 0 69 53 129 255 
0.7855341 -0.2002188 -2.47939 0 0 0 70 52 128 255 
0.7741153 -0.2208337 -2.191011 0 0 0 69 53 129 255 
0.7664882 -0.2480361 -1.999929 0 0 0 43 117 142 255 
0.7917911 -0.3398685 -2.423217 0 0 0 65 68 135 255 
0.79705 -0.3986246 -2.492031 0 0 0 67 62 133 255 
0.7908199 -0.4332655 -2.368187 0 0 0 55 90 140 255 
0.7907346 -0.4860822 -2.365307 0 0 0 59 82 139 255 
0.9082745 -0.8610029 -4.3912 0 0 0 71 19 101 255 
0.8945328 -0.8918974 -4.157189 0 0 0 72 24 106 255 
0.8765936 -0.9048638 -3.845542 0 0 0 71 13 96 255 
0.8617548 -0.9284289 -3.600307 0 0 0 71 16 99 255 
0.96813 0.1079457 -5.820829 0 0 0 71 44 122 255 
0.9762924 0.02527007 -5.866161 0 0 0 70 8 92 255 
0.9792302 -0.05642965 -5.78676 0 0 0 69 4 87 255 
0.9824136 -0.1295803 -5.898451 0 0 0 69 5 89 255 
0.9857142 -0.2106449 -5.899805 0 0 0 69 5 89 255 
0.9937462 -0.2979415 -5.941874 0 0 0 71 13 96 255 
0.8304357 -0.1725102 -2.742121 0 0 0 71 47 125 255 
0.8178393 -0.2003461 -2.489802 0 0 0 70 51 127 255 
0.8053021 -0.2224132 -2.213405 0 0 0 69 55 129 255 
0.7951945 -0.2470993 -1.998551 0 0 0 42 118 142 255 
0.843592 -0.3850813 -2.790242 0 0 0 64 69 136 255 
0.8306882 -0.4024039 -2.526111 0 0 0 68 58 131 255 
0.8203558 -0.4288187 -2.342979 0 0 0 55 90 140 255 
0.822221 -0.486917 -2.375667 0 0 0 57 85 140 255 
0.9547459 -0.8692924 -4.448161 0 0 0 69 5 89 255 
0.9333627 -0.8823352 -4.10792 0 0 0 72 20 103 255 
0.9148932 -0.8992336 -3.820038 0 0 0 71 16 99 255 
0.9026154 -0.9363548 -3.645507 0 0 0 72 22 104 255 
1.023077 0.1085145 -5.865977 0 0 0 69 5 89 255 
1.032195 0.02499881 -5.923237 0 0 0 69 5 89 255 
1.038137 -0.059863 -5.903656 0 0 0 69 4 87 255 
0.9380553 -0.04318455 -4.220594 0 0 0 72 24 106 255 
0.9386684 -0.1064485 -4.186967 0 0 0 72 40 120 255 
0.9409114 -0.1712888 -4.146495 0 0 0 72 36 117 255 
0.9516971 -0.3000377 -4.208074 0 0 0 69 55 129 255 
0.8502783 -0.2004845 -2.500014 0 0 0 72 40 120 255 
0.8346025 -0.2201731 -2.199871 0 0 0 70 51 127 255 
0.8246176 -0.2475704 -2.008894 0 0 0 43 116 142 255 
0.8770601 -0.3840074 -2.788408 0 0 0 65 68 135 255 
0.8610579 -0.3981796 -2.500626 0 0 0 69 56 130 255 
0.851807 -0.4295497 -2.353161 0 0 0 58 84 140 255 
0.8508995 -0.4804082 -2.338489 0 0 0 58 83 139 255 
0.9716108 -0.8728122 -4.058428 0 0 0 70 8 92 255 
0.9536501 -0.8957988 -3.806086 0 0 0 70 10 93 255 
0.9350607 -0.9167976 -3.549376 0 0 0 70 10 93 255 
0.9838562 0.0124425 -4.237433 0 0 0 67 62 133 255 
0.9704827 -0.03400502 -4.062595 0 0 0 68 59 132 255 
0.9677315 -0.09296545 -3.981245 0 0 0 59 82 139 255 
0.9711223 -0.1575014 -3.964804 0 0 0 62 76 138 255 
0.9777906 -0.2280412 -4.004329 0 0 0 60 79 138 255 
0.9838672 -0.3486339 -4.035533 0 0 0 71 47 125 255 
0.8621621 -0.2154071 -2.162348 0 0 0 72 31 112 255 
0.8533778 -0.2466602 -2.007161 0 0 0 43 116 142 255 
0.9113237 -0.3844373 -2.79825 0 0 0 64 69 136 255 
0.8984184 -0.4083691 -2.581752 0 0 0 68 58 131 255 
0.8833904 -0.4302928 -2.363144 0 0 0 59 82 139 255 
0.8847876 -0.4867844 -2.383965 0 0 0 59 82 139 255 
0.9124013 -0.5669672 -2.61185 0 0 0 72 28 110 255 
0.9073681 -0.611408 -2.557951 0 0 0 72 23 105 255 
0.9073967 -0.6694173 -2.579146 0 0 0 72 24 106 255 
0.9041879 -0.723405 -2.55997 0 0 0 72 28 110 255 
1.013709 0.08608904 -4.133888 0 0 0 71 45 123 255 
1.007834 0.02489802 -3.971513 0 0 0 68 59 132 255 
1.004355 -0.02730772 -3.952282 0 0 0 71 44 122 255 
1.001042 -0.08527836 -3.871023 0 0 0 72 27 109 255 
1.007634 -0.1520871 -3.902413 0 0 0 71 13 96 255 
1.007628 -0.2144437 -3.846503 0 0 0 70 11 94 255 
1.020549 -0.2786517 -3.988108 0 0 0 70 11 94 255 
1.035658 -0.4253942 -4.135952 0 0 0 72 35 116 255 
0.8734366 -0.2318752 -1.886374 0 0 0 70 48 126 255 
0.9457192 -0.3848794 -2.807878 0 0 0 69 55 129 255 
0.9323633 -0.4105615 -2.603315 0 0 0 70 50 126 255 
0.917745 -0.4361866 -2.408463 0 0 0 57 85 140 255 
0.9157231 -0.4858206 -2.381911 0 0 0 57 86 140 255 
0.9410741 -0.5582446 -2.562405 0 0 0 72 23 105 255 
1.050854 -0.86411 -4.017747 0 0 0 72 23 105 255 
1.033382 -0.8954916 -3.812795 0 0 0 71 16 99 255 
0.9902989 -0.8618474 -3.274395 0 0 0 70 7 90 255 
1.043843 0.09238783 -3.97541 0 0 0 72 22 104 255 
1.04872 0.02615294 -3.968561 0 0 0 69 5 89 255 
1.040544 -0.02306435 -3.889613 0 0 0 69 5 89 255 
0.964124 -0.07566029 -2.813329 0 0 0 69 5 89 255 
0.9529527 -0.11677 -2.627094 0 0 0 72 40 120 255 
0.9560186 -0.1600218 -2.638352 0 0 0 69 55 129 255 
0.9549334 -0.2090311 -2.61278 0 0 0 71 46 124 255 
0.956292 -0.2604995 -2.598366 0 0 0 72 20 103 255 
1.248689 -0.7427186 -6.268949 0 0 0 70 10 93 255 
1.213121 -0.7485013 -5.725464 0 0 0 70 8 92 255 
0.9675347 -0.4143542 -2.636514 0 0 0 70 52 128 255 
0.9450483 -0.4283886 -2.358839 0 0 0 59 82 139 255 
0.9466453 -0.4848724 -2.379667 0 0 0 54 92 141 255 
0.970138 -0.5514842 -2.524608 0 0 0 70 11 94 255 
1.091587 -0.8628658 -4.014731 0 0 0 71 19 101 255 
1.074778 -0.8986052 -3.833426 0 0 0 71 16 99 255 
1.053355 -0.9246813 -3.600526 0 0 0 71 13 96 255 
0.9760064 -0.05651131 -2.548223 0 0 0 68 57 131 255 
0.9715442 -0.1025788 -2.457642 0 0 0 64 69 136 255 
0.9735948 -0.1434883 -2.457091 0 0 0 55 90 140 255 
0.9703014 -0.1885079 -2.40789 0 0 0 58 84 140 255 
0.9734914 -0.2405307 -2.417467 0 0 0 60 80 139 255 
0.9730172 -0.289707 -2.392837 0 0 0 66 65 134 255 
0.9780943 -0.3325154 -2.399367 0 0 0 72 33 115 255 
1.004147 -0.4197433 -2.68133 0 0 0 68 57 131 255 
0.978926 -0.4325868 -2.391904 0 0 0 62 74 137 255 
0.9775529 -0.4839399 -2.377234 0 0 0 56 89 140 255 
1.006084 -0.5582358 -2.569235 0 0 0 71 16 99 255 
1.139594 -0.875934 -4.09392 0 0 0 71 16 99 255 
1.120587 -0.9103634 -3.900827 0 0 0 72 23 105 255 
1.094599 -0.9303757 -3.632726 0 0 0 71 19 101 255 
0.9964184 -0.0465152 -2.414344 0 0 0 72 40 120 255 
1.005262 -0.1035238 -2.478798 0 0 0 72 20 103 255 
0.9932948 -0.1311734 -2.323442 0 0 0 72 27 109 255 
0.9993711 -0.185286 -2.381452 0 0 0 72 37 118 255 
1.003667 -0.2383389 -2.40293 0 0 0 70 51 127 255 
1.003016 -0.2874025 -2.378328 0 0 0 66 65 134 255 
1.011386 -0.3345501 -2.420424 0 0 0 61 78 138 255 
1.029253 -0.4076436 -2.595622 0 0 0 69 53 129 255 
1.007744 -0.4282534 -2.365606 0 0 0 64 69 136 255 
1.012817 -0.4903339 -2.421849 0 0 0 56 89 140 255 
1.036997 -0.5553662 -2.55466 0 0 0 71 19 101 255 
1.17856 -0.8706377 -4.066818 0 0 0 70 8 92 255 
1.157259 -0.9027101 -3.86214 0 0 0 71 17 100 255 
1.127442 -0.917841 -3.570814 0 0 0 71 17 100 255 
1.040285 -0.0546169 -2.542603 0 0 0 70 10 93 255 
1.035169 -0.287878 -2.38737 0 0 0 70 11 94 255 
1.036786 -0.3262612 -2.358302 0 0 0 71 16 99 255 
1.043997 -0.3828859 -2.415108 0 0 0 66 63 133 255 
1.045589 -0.4375834 -2.433713 0 0 0 66 65 134 255 
1.043979 -0.4894245 -2.419012 0 0 0 56 88 140 255 
1.068938 -0.5544392 -2.551686 0 0 0 71 19 101 255 
1.227872 -0.8837068 -4.145387 0 0 0 71 19 101 255 
1.200555 -0.9080155 -3.893724 0 0 0 72 20 103 255 
1.177128 -0.9395072 -3.684586 0 0 0 71 14 97 255 
1.092969 -0.2642528 -2.658215 0 0 0 70 7 90 255 
1.085875 -0.3090399 -2.574065 0 0 0 69 5 89 255 
1.091285 -0.4026084 -2.565845 0 0 0 70 8 92 255 
1.078087 -0.4383909 -2.442477 0 0 0 67 61 132 255 
1.073889 -0.4867077 -2.404188 0 0 0 64 69 136 255 
1.103381 -0.557369 -2.572075 0 0 0 72 31 112 255 
1.270627 -0.8845567 -4.153051 0 0 0 72 22 104 255 
1.244252 -0.9133282 -3.925023 0 0 0 71 19 101 255 
1.21827 -0.9429491 -3.704255 0 0 0 72 20 103 255 
1.118055 -0.3081327 -2.570738 0 0 0 69 5 89 255 
1.120746 -0.3985386 -2.538861 0 0 0 72 26 108 255 
1.119868 -0.4511158 -2.53368 0 0 0 72 28 110 255 
1.123231 -0.5113356 -2.56602 0 0 0 72 27 109 255 
1.136757 -0.558388 -2.580467 0 0 0 72 29 111 255 
1.127953 -0.6007427 -2.515171 0 0 0 72 27 109 255 
1.279112 -0.9035988 -3.87391 0 0 0 71 16 99 255 
1.25442 -0.93731 -3.676821 0 0 0 72 24 106 255 
1.56594 -0.7236414 -6.155288 0 0 0 70 10 93 255 
1.529719 -0.7499251 -5.77918 0 0 0 71 14 97 255 
1.476204 -0.7677977 -5.299972 0 0 0 70 8 92 255 
1.150352 -0.4485356 -2.518381 0 0 0 71 17 100 255 
1.152507 -0.5068098 -2.538949 0 0 0 71 19 101 255 
1.168854 -0.5575042 -2.576884 0 0 0 71 13 96 255 
1.16661 -0.6100261 -2.570374 0 0 0 71 13 96 255 
1.327283 -0.9153874 -3.939857 0 0 0 72 23 105 255 
1.287498 -0.9271553 -3.625778 0 0 0 72 20 103 255 
1.614022 -0.7166874 -6.101719 0 0 0 71 13 96 255 
1.585624 -0.7529299 -5.808643 0 0 0 72 20 103 255 
1.533539 -0.7759578 -5.365149 0 0 0 70 11 94 255 
1.499954 -0.8193034 -5.096794 0 0 0 71 17 100 255 
1.446552 -0.8349626 -4.666126 0 0 0 72 23 105 255 
1.424755 -0.8475902 -4.359786 0 0 0 70 11 94 255 
1.399584 -0.8872101 -4.174425 0 0 0 72 20 103 255 
1.355825 -0.897126 -3.841436 0 0 0 72 24 106 255 
1.33016 -0.9329219 -3.656417 0 0 0 72 29 111 255 
1.678162 -0.7248507 -6.177962 0 0 0 71 13 96 255 
1.629729 -0.7442205 -5.743238 0 0 0 71 16 99 255 
1.582541 -0.774652 -5.359138 0 0 0 70 11 94 255 
1.538161 -0.8078701 -5.020313 0 0 0 71 17 100 255 
1.500372 -0.8446651 -4.731256 0 0 0 72 23 105 255 
1.479928 -0.8617525 -4.44844 0 0 0 71 17 100 255 
1.442794 -0.8881309 -4.181008 0 0 0 71 14 97 255 
1.409239 -0.9153695 -3.941933 0 0 0 72 28 110 255 
1.371693 -0.9364305 -3.675087 0 0 0 72 33 115 255 
1.746437 -0.7357519 -6.277381 0 0 0 71 19 101 255 
1.684247 -0.7458069 -5.760231 0 0 0 71 16 99 255 
1.639492 -0.7812517 -5.411769 0 0 0 71 13 96 255 
1.586634 -0.8083357 -5.026059 0 0 0 71 19 101 255 
1.543877 -0.8416687 -4.713721 0 0 0 72 24 106 255 
1.531358 -0.8701756 -4.501475 0 0 0 71 19 101 255 
1.482898 -0.8850161 -4.16388 0 0 0 71 16 99 255 
1.443071 -0.9057477 -3.889947 0 0 0 72 23 105 255 
1.408697 -0.933154 -3.658457 0 0 0 72 33 115 255 
1.79274 -0.7275155 -6.211012 0 0 0 71 19 101 255 
1.740676 -0.7488748 -5.788666 0 0 0 71 14 97 255 
1.690442 -0.7815616 -5.416889 0 0 0 71 14 97 255 
1.633548 -0.8071311 -5.019738 0 0 0 71 17 100 255 
1.597172 -0.8495734 -4.766401 0 0 0 72 26 108 255 
1.561556 -0.8537903 -4.4017 0 0 0 71 14 97 255 
1.527864 -0.8880005 -4.181643 0 0 0 71 14 97 255 
1.477979 -0.8983023 -3.84948 0 0 0 72 28 110 255 
1.455513 -0.9434849 -3.711609 0 0 0 72 33 115 255 
1.846932 -0.7261494 -6.203392 0 0 0 72 23 105 255 
1.776635 -0.7344317 -5.675326 0 0 0 71 13 96 255 
1.736277 -0.7771769 -5.386384 0 0 0 71 17 100 255 
1.683895 -0.8093297 -5.036636 0 0 0 71 14 97 255 
1.642479 -0.8484312 -4.76003 0 0 0 72 26 108 255 
1.604632 -0.8527117 -4.395554 0 0 0 71 19 101 255 
1.555583 -0.8707751 -4.082128 0 0 0 71 13 96 255 
1.52637 -0.9079995 -3.902257 0 0 0 72 26 108 255 
1.489126 -0.93572 -3.671174 0 0 0 72 28 110 255 
1.899276 -0.723449 -6.183652 0 0 0 71 17 100 255 
1.856498 -0.7565172 -5.856179 0 0 0 71 16 99 255 
1.790836 -0.7806782 -5.414408 0 0 0 72 23 105 255 
1.739904 -0.8166101 -5.088431 0 0 0 71 14 97 255 
1.687746 -0.8473129 -4.75338 0 0 0 72 31 112 255 
1.660454 -0.8649918 -4.471087 0 0 0 71 13 96 255 
1.609436 -0.8839086 -4.157842 0 0 0 71 13 96 255 
1.573618 -0.9155631 -3.94302 0 0 0 72 28 110 255 
1.529502 -0.9370277 -3.677148 0 0 0 72 31 112 255 
1.955173 -0.7235024 -6.187154 0 0 0 72 23 105 255 
1.910386 -0.7567182 -5.859942 0 0 0 71 14 97 255 
1.836371 -0.7763491 -5.38333 0 0 0 72 24 106 255 
1.781559 -0.8104079 -5.045979 0 0 0 72 22 104 255 
1.734845 -0.8480259 -4.758167 0 0 0 72 26 108 255 
1.692564 -0.8525252 -4.394166 0 0 0 71 13 96 255 
1.652895 -0.8849263 -4.163091 0 0 0 70 11 94 255 
1.611977 -0.9124568 -3.925166 0 0 0 72 26 108 255 
1.568109 -0.9360937 -3.67123 0 0 0 72 24 106 255 
2.009218 -0.7222214 -6.178539 0 0 0 72 23 105 255 
1.950707 -0.7467545 -5.78111 0 0 0 71 13 96 255 
1.889383 -0.7783229 -5.39894 0 0 0 72 22 104 255 
1.836383 -0.8160322 -5.085347 0 0 0 72 22 104 255 
1.774266 -0.8415364 -4.715846 0 0 0 71 16 99 255 
1.749363 -0.8648252 -4.469006 0 0 0 71 13 96 255 
1.694496 -0.8839452 -4.156398 0 0 0 71 17 100 255 
1.646251 -0.9051061 -3.883794 0 0 0 72 29 111 255 
1.610567 -0.9396949 -3.688324 0 0 0 72 29 111 255 
2.065224 -0.7223265 -6.181345 0 0 0 72 20 103 255 
1.994167 -0.7397468 -5.725581 0 0 0 70 11 94 255 
1.944654 -0.7818806 -5.425926 0 0 0 72 23 105 255 
1.881632 -0.8132546 -5.065791 0 0 0 72 22 104 255 
1.811203 -0.8332784 -4.661625 0 0 0 71 14 97 255 
1.782652 -0.8543233 -4.403352 0 0 0 71 19 101 255 
1.740116 -0.887017 -4.172757 0 0 0 71 19 101 255 
1.688156 -0.9063164 -3.888785 0 0 0 72 26 108 255 
1.645211 -0.9342866 -3.658685 0 0 0 72 33 115 255 
2.127578 -0.7265263 -6.219014 0 0 0 71 17 100 255 
2.055851 -0.7458475 -5.775372 0 0 0 70 11 94 255 
1.987736 -0.7760714 -5.382267 0 0 0 72 24 106 255 
1.9455 -0.8256352 -5.151238 0 0 0 71 19 101 255 
1.864215 -0.8394723 -4.70066 0 0 0 71 17 100 255 
1.827841 -0.8552504 -4.407514 0 0 0 72 22 104 255 
1.781773 -0.8860767 -4.165531 0 0 0 72 20 103 255 
1.730163 -0.9075435 -3.893509 0 0 0 72 29 111 255 
1.68162 -0.9311596 -3.640458 0 0 0 72 28 110 255 
2.186127 -0.7280328 -6.232798 0 0 0 72 24 106 255 
2.096543 -0.7374545 -5.707586 0 0 0 71 13 96 255 
2.039 -0.776547 -5.385179 0 0 0 71 17 100 255 
1.98236 -0.8161805 -5.084305 0 0 0 72 24 106 255 
1.924213 -0.8510795 -4.774321 0 0 0 71 14 97 255 
1.868768 -0.8524047 -4.388093 0 0 0 72 23 105 255 
1.816871 -0.8791211 -4.123164 0 0 0 72 23 105 255 
1.776592 -0.913048 -3.921183 0 0 0 72 24 106 255 
1.722157 -0.9325606 -3.645198 0 0 0 72 33 115 255 
2.244901 -0.7295611 -6.246197 0 0 0 71 16 99 255 
2.152118 -0.7392473 -5.72152 0 0 0 71 13 96 255 
2.094823 -0.7801669 -5.411136 0 0 0 72 28 110 255 
2.036312 -0.8201916 -5.110577 0 0 0 72 20 103 255 
1.951748 -0.8357046 -4.672721 0 0 0 71 16 99 255 
1.920751 -0.8590615 -4.426605 0 0 0 72 22 104 255 
1.860468 -0.8802402 -4.127083 0 0 0 72 20 103 255 
1.816697 -0.9121813 -3.913744 0 0 0 72 22 104 255 
1.762789 -0.93398 -3.649676 0 0 0 72 33 115 255 
2.308496 -0.7338173 -6.282611 0 0 0 71 17 100 255 
2.221756 -0.7497464 -5.805211 0 0 0 71 16 99 255 
2.1464 -0.7806865 -5.413367 0 0 0 72 24 106 255 
2.081427 -0.8175117 -5.089851 0 0 0 71 19 101 255 
2.010262 -0.8455417 -4.734022 0 0 0 72 22 104 255 
1.954693 -0.8505776 -4.37178 0 0 0 71 17 100 255 
1.908781 -0.885397 -4.153929 0 0 0 72 28 110 255 
1.852152 -0.9070834 -3.882894 0 0 0 71 19 101 255 
1.798932 -0.9309163 -3.630771 0 0 0 72 23 105 255 
2.348892 -0.724586 -6.201723 0 0 0 71 19 101 255 
2.26394 -0.7428958 -5.748286 0 0 0 71 16 99 255 
2.188553 -0.7749963 -5.368636 0 0 0 72 22 104 255 
2.131088 -0.8182112 -5.092149 0 0 0 72 24 106 255 
2.05063 -0.8410184 -4.701872 0 0 0 71 19 101 255 
2.016693 -0.8648388 -4.456083 0 0 0 72 24 106 255 
1.933651 -0.870487 -4.06455 0 0 0 72 24 106 255 
1.892024 -0.9062622 -3.874992 0 0 0 71 17 100 255 
1.834891 -0.9278769 -3.611656 0 0 0 71 16 99 255 
2.400578 -0.7221463 -6.17903 0 0 0 71 13 96 255 
2.315288 -0.7418636 -5.737795 0 0 0 71 17 100 255 
2.235118 -0.7724545 -5.346977 0 0 0 71 19 101 255 
2.180832 -0.8189332 -5.09413 0 0 0 72 28 110 255 
2.105286 -0.847291 -4.739176 0 0 0 71 19 101 255 
2.055168 -0.8601884 -4.423972 0 0 0 72 28 110 255 
1.994258 -0.8857187 -4.148734 0 0 0 72 26 108 255 
1.926964 -0.9012156 -3.843736 0 0 0 71 17 100 255 
1.89012 -0.9428339 -3.68461 0 0 0 71 16 99 255 
2.474656 -0.7318655 -6.260945 0 0 0 71 16 99 255 
2.376643 -0.7466325 -5.773567 0 0 0 71 16 99 255 
2.29407 -0.7777181 -5.383194 0 0 0 70 11 94 255 
2.220608 -0.8129874 -5.049335 0 0 0 72 23 105 255 
2.142896 -0.8410248 -4.694906 0 0 0 71 19 101 255 
2.100897 -0.8612369 -4.426388 0 0 0 72 24 106 255 
2.033243 -0.8829032 -4.128395 0 0 0 72 28 110 255 
1.966599 -0.9004395 -3.835378 0 0 0 71 19 101 255 
1.908752 -0.924113 -3.584332 0 0 0 71 19 101 255 
2.19549 -0.8455417 -4.719945 0 0 0 71 17 100 255 
2.069445 -0.8781086 -4.096288 0 0 0 72 26 108 255 
2.026832 -0.9166493 -3.918982 0 0 0 71 17 100 255 
1.967356 -0.9413371 -3.668131 0 0 0 72 22 104 255 
